<?xml version="1.0" standalone="no"?><!DOCTYPE svg PUBLIC "-//W3C//DTD SVG 1.1//EN" "http://www.w3.org/Graphics/SVG/1.1/DTD/svg11.dtd"><svg t="1599120931605" class="icon" viewBox="0 0 1024 1024" version="1.1" xmlns="http://www.w3.org/2000/svg" p-id="1352" xmlns:xlink="http://www.w3.org/1999/xlink" width="200" height="200"><defs><style type="text/css"></style></defs><path d="M465.12499991 512a187.50000037 187.50000037 0 1 0 0-374.99999991 187.50000037 187.50000037 0 0 0 0 374.99999991z m0 46.87500009c-129.44531277 0-234.37499963-104.92968769-234.37499964-234.37500046S335.67968713 90.125 465.12499991 90.125s234.37499963 104.92968769 234.37500046 234.37499963-104.92968769 234.37499963-234.37500046 234.37500046z" p-id="1353"></path><path d="M583.43750027 531.05468723A376.64062482 376.64062482 0 0 0 465.12499991 512C258.00781287 512 90.125 679.88281287 90.125 886.99999991a23.43749963 23.43749963 0 0 0 46.87500009 0c0-181.21874963 146.90625019-328.12499981 328.12499982-328.12499982a329.76562473 329.76562473 0 0 1 103.5234374 16.64062454 23.43749963 23.43749963 0 0 0 14.765625-44.4609374zM746.37499963 933.875a187.50000037 187.50000037 0 1 0 0-374.99999991 187.50000037 187.50000037 0 0 0 0 374.99999991z m0-46.87500009a140.62500027 140.62500027 0 1 1 0-281.24999973 140.62500027 140.62500027 0 0 1 0 281.24999973z" p-id="1354"></path><path d="M699.50000037 652.62500027m23.43749963 0l0 0q23.43749963 0 23.43749963 23.43749964l0 93.75000018q0 23.43749963-23.43749963 23.43749964l0 0q-23.43749963 0-23.43749963-23.43749964l0-93.75000018q0-23.43749963 23.43749963-23.43749964Z" p-id="1355"></path><path d="M699.50000037 793.24999973m0-23.43749964l0 0q0-23.43749963 23.43749963-23.43750046l93.75000019 0q23.43749963 0 23.43749963 23.43750046l0 0q0 23.43749963-23.43749963 23.43749964l-93.75000019 0q-23.43749963 0-23.43749963-23.43749964Z" p-id="1356"></path></svg>