<?xml version="1.0" encoding="UTF-8"?>
<svg width="16px" height="16px" viewBox="0 0 16 16" version="1.1" xmlns="http://www.w3.org/2000/svg" xmlns:xlink="http://www.w3.org/1999/xlink">
    <!-- Generator: Sketch 64 (93537) - https://sketch.com -->
    <title>活动列表</title>
    <desc>Created with Sketch.</desc>
    <g id="活动列表" stroke="none" stroke-width="1" fill="none" fill-rule="evenodd">
        <g id="编组" transform="translate(1.000000, 1.000000)" fill="#FFFFFF" fill-rule="nonzero">
            <path d="M5.87820513,-7.87518199e-15 L0.35,-7.87518199e-15 C0.156700338,-7.87518199e-15 -7.87518199e-15,0.156700338 -7.87518199e-15,0.35 L-7.87518199e-15,5.87820513 C-7.87518199e-15,6.07150479 0.156700338,6.22820513 0.35,6.22820513 L5.87820513,6.22820513 C6.07150479,6.22820513 6.22820513,6.07150479 6.22820513,5.87820513 L6.22820513,0.35 C6.22820513,0.156700338 6.07150479,-7.87518199e-15 5.87820513,-7.87518199e-15 Z M5.52813333,0.7 L5.52813333,5.52813333 L0.7,5.52813333 L0.7,0.7 L5.52813333,0.7 Z" id="矩形"></path>
            <path d="M5.87820513,7.12727273 L0.35,7.12727273 C0.156700338,7.12727273 -7.87518199e-15,7.28397306 -7.87518199e-15,7.47727273 L-7.87518199e-15,13.0054779 C-7.87518199e-15,13.1987775 0.156700338,13.3554779 0.35,13.3554779 L5.87820513,13.3554779 C6.07150479,13.3554779 6.22820513,13.1987775 6.22820513,13.0054779 L6.22820513,7.47727273 C6.22820513,7.28397306 6.07150479,7.12727273 5.87820513,7.12727273 Z M5.52813333,7.82693333 L5.52813333,12.6550667 L0.7,12.6550667 L0.7,7.82693333 L5.52813333,7.82693333 Z" id="矩形备份-4"></path>
            <path d="M12.8227273,8.31515152 C13.0160269,8.31515152 13.1727273,8.48304473 13.1727273,8.69015152 C13.1727273,8.87136995 13.0527536,9.0225655 12.8932645,9.05753285 L12.8227273,9.06515152 L8.07121212,9.06515152 C7.87791246,9.06515152 7.72121212,8.8972583 7.72121212,8.69015152 C7.72121212,8.50893308 7.84118582,8.35773753 8.00067491,8.32277018 L8.07121212,8.31515152 L12.8227273,8.31515152 Z" id="直线-2备份-2"></path>
            <path d="M12.8227273,10.6909091 C13.0160269,10.6909091 13.1727273,10.8588023 13.1727273,11.0659091 C13.1727273,11.2471275 13.0527536,11.3983231 12.8932645,11.4332904 L12.8227273,11.4409091 L8.07121212,11.4409091 C7.87791246,11.4409091 7.72121212,11.2730159 7.72121212,11.0659091 C7.72121212,10.8846907 7.84118582,10.7334951 8.00067491,10.6985278 L8.07121212,10.6909091 L12.8227273,10.6909091 Z" id="直线-2备份-3"></path>
            <path d="M12.8227273,1.5990676 C13.0160269,1.5990676 13.1727273,1.76696082 13.1727273,1.9740676 C13.1727273,2.15528603 13.0527536,2.30648158 12.8932645,2.34144893 L12.8227273,2.3490676 L8.07121212,2.3490676 C7.87791246,2.3490676 7.72121212,2.18117438 7.72121212,1.9740676 C7.72121212,1.79284917 7.84118582,1.64165362 8.00067491,1.60668627 L8.07121212,1.5990676 L12.8227273,1.5990676 Z" id="直线-2"></path>
            <path d="M12.8227273,4.56876457 C13.0160269,4.56876457 13.1727273,4.73665779 13.1727273,4.94376457 C13.1727273,5.124983 13.0527536,5.27617855 12.8932645,5.3111459 L12.8227273,5.31876457 L8.07121212,5.31876457 C7.87791246,5.31876457 7.72121212,5.15087135 7.72121212,4.94376457 C7.72121212,4.76254614 7.84118582,4.61135059 8.00067491,4.57638324 L8.07121212,4.56876457 L12.8227273,4.56876457 Z" id="直线-2备份"></path>
        </g>
    </g>
</svg>