<?xml version="1.0" encoding="UTF-8"?>
<svg width="16px" height="16px" viewBox="0 0 16 16" version="1.1" xmlns="http://www.w3.org/2000/svg" xmlns:xlink="http://www.w3.org/1999/xlink">
    <!-- Generator: Sketch 64 (93537) - https://sketch.com -->
    <title>活动中心</title>
    <desc>Created with Sketch.</desc>
    <g id="活动中心" stroke="none" stroke-width="1" fill="none" fill-rule="evenodd">
        <path d="M13.4789895,0.667729359 C13.7432756,0.529456077 14.055392,0.740121042 14.0260079,1.03694286 C13.7588015,3.73611109 13.0242176,5.38206725 11.7530444,5.93639036 C11.3246961,6.12318109 10.9690466,6.19398071 10.3543087,6.23078412 L9.71291576,6.25801636 C8.37498844,6.31045741 7.69992355,6.59951753 6.98570908,7.74569925 L6.8571967,7.95627082 L6.83,7.988 L8.83808265,12.5493363 C8.91110313,12.715192 8.85438006,12.9053655 8.71207504,13.0062237 L8.64597621,13.0436491 C8.48012046,13.1166695 8.28994697,13.0599465 8.1890888,12.9176414 L8.15166344,12.8515426 L3.65679039,2.64206996 C3.58444663,2.47775126 3.63871981,2.28520994 3.78623066,2.18286345 C4.82631965,1.46122529 5.74574046,1.09301758 6.55432129,1.09301758 C6.92810345,1.09301758 7.32321236,1.18665128 7.82316833,1.37207709 L8.23849444,1.53624347 L8.97245123,1.84340124 C9.49456886,2.05538302 9.71468694,2.1159668 9.93615723,2.1159668 C10.4287911,2.1159668 11.6383409,1.63074849 13.4789895,0.667729359 Z M13.1704224,1.83508743 L13.196,1.656 L12.9914642,1.75867519 C11.5008224,2.49838801 10.4999542,2.8659668 9.93615723,2.8659668 C9.56201203,2.8659668 9.2897711,2.7879459 8.5533978,2.48237995 L7.76672156,2.15398292 C7.24078383,1.94462895 6.86271487,1.84301758 6.55432129,1.84301758 C6.02818747,1.84301758 5.39642903,2.06090538 4.66473356,2.50523264 L4.47,2.627 L6.468,7.165 L6.58554094,6.99668145 C7.34301431,5.95021461 8.17131536,5.59943639 9.47387429,5.51909234 L9.87660274,5.50162888 C10.6962881,5.47335336 11.0444518,5.4271798 11.4532544,5.24891237 C12.2858021,4.8858616 12.8736469,3.75649964 13.1704224,1.83508743 Z" id="路径-3" fill="#FFFFFF" fill-rule="nonzero"></path>
        <path d="M8.83828856,9.14240801 C12.5377772,9.29707534 15.375,10.4282995 15.375,12 C15.375,13.6928929 12.0651001,14.875 8,14.875 C3.93489988,14.875 0.625,13.6928929 0.625,12 C0.625,10.6806223 2.59261139,9.68011384 5.46453896,9.29052188 C5.66976602,9.26268176 5.8587043,9.40648229 5.88654442,9.61170935 C5.91438454,9.81693641 5.77058402,10.0058747 5.56535696,10.0337148 C3.04593922,10.375487 1.375,11.2251409 1.375,12 C1.375,13.0685308 4.33311363,14.125 8,14.125 C11.6668864,14.125 14.625,13.0685308 14.625,12 C14.625,11.029011 12.1200488,10.0302662 8.80696011,9.89175341 C8.60003409,9.8831023 8.43930052,9.7083425 8.44795163,9.50141648 C8.45660275,9.29449046 8.63136254,9.1337569 8.83828856,9.14240801 Z" id="路径" fill="#FFFFFF" fill-rule="nonzero"></path>
    </g>
</svg>