<?xml version="1.0" standalone="no"?><!DOCTYPE svg PUBLIC "-//W3C//DTD SVG 1.1//EN" "http://www.w3.org/Graphics/SVG/1.1/DTD/svg11.dtd"><svg t="1599031324025" class="icon" viewBox="0 0 1024 1024" version="1.1" xmlns="http://www.w3.org/2000/svg" p-id="888" xmlns:xlink="http://www.w3.org/1999/xlink" width="200" height="200"><defs><style type="text/css"></style></defs><path d="M113.777778 387.470222C113.777778 601.457778 512 1024 512 1024s398.222222-422.542222 398.222222-636.529778S731.932444 0 512 0 113.777778 173.482667 113.777778 387.470222zM512 580.266667c-105.187556 0-190.464-84.053333-190.464-187.733334 0-103.68 85.276444-187.733333 190.464-187.733333 105.187556 0 190.464 84.053333 190.464 187.733333 0 103.68-85.276444 187.733333-190.464 187.733334z" p-id="889"></path><path d="M512 398.222222m-113.777778 0a113.777778 113.777778 0 1 0 227.555556 0 113.777778 113.777778 0 1 0-227.555556 0Z" p-id="890"></path></svg>