<?xml version="1.0" standalone="no"?><!DOCTYPE svg PUBLIC "-//W3C//DTD SVG 1.1//EN" "http://www.w3.org/Graphics/SVG/1.1/DTD/svg11.dtd"><svg t="1600073394333" class="icon" viewBox="0 0 1024 1024" version="1.1" xmlns="http://www.w3.org/2000/svg" p-id="1431" xmlns:xlink="http://www.w3.org/1999/xlink" width="200" height="200"><defs><style type="text/css"></style></defs><path d="M947.213661 385.192919c-4.491291-6.303566-14.103206-16.878412-28.025287-16.878412L397.138484 368.314507l0.710175-1.069355-2.964518-1.971911c-0.665149-0.442068-1.316995-0.87595-1.966795-1.296529-1.614777-1.295506-2.738367-2.218528-3.553942-2.88777-3.02694-2.486634-5.887081-4.835122-11.535731-6.750751-0.421602-0.143263-1.541099-0.522909-5.085832-2.202155-14.268982-6.766101-29.054733-11.878538-44.248783-15.329127 53.226249-19.675108 91.267657-70.880327 91.267657-130.795928 0-76.870762-62.616106-139.41012-139.581012-139.41012-76.965929 0-139.582035 62.539358-139.582035 139.41012 0 60.037375 38.194904 111.332644 91.591021 130.919748C137.470443 358.682126 66.66891 442.931948 66.66891 543.251771c0 3.606131 0.093121 7.269567 0.277316 10.887978l1.239224 24.307615 208.870098 0 0 210.2884c0 25.654286 20.871353 46.52564 46.526663 46.52564l267.836071 0 0 70.450539-75.795267 0c-14.145162 0-25.611308 11.466146-25.611308 25.611308s11.466146 25.611308 25.611308 25.611308l202.811102 0c14.145162 0 25.611308-11.466146 25.611308-25.611308s-11.466146-25.611308-25.611308-25.611308l-75.792197 0 0-70.450539 267.834025 0c25.654286 0 46.526663-20.871353 46.526663-46.52564L957.002608 414.840146C957.003632 404.584572 953.52746 394.055774 947.213661 385.192919zM277.057595 414.840146l0 112.38358L118.696868 527.223726c8.172123-81.033571 77.629032-144.526651 161.823596-144.526651 3.388167 0 6.755868 0.109494 10.105149 0.310062C281.439392 391.857712 277.057595 403.564335 277.057595 414.840146zM280.179702 294.197462c-48.721655 0-88.358397-39.559994-88.358397-88.186482 0-48.626487 39.636742-88.186482 88.358397-88.186482 48.720631 0 88.357374 39.561018 88.357374 88.186482C368.537076 254.637468 328.900334 294.197462 280.179702 294.197462zM905.779993 784.037766L328.281233 784.037766l0-29.893844 577.49876 0L905.779993 784.037766zM905.779993 702.920284L328.281233 702.920284 328.281233 419.777599c1.028423-0.137123 2.350534-0.23843 4.013407-0.23843l573.485353 0L905.779993 702.920284z" p-id="1432"></path></svg>