<?xml version="1.0" standalone="no"?><!DOCTYPE svg PUBLIC "-//W3C//DTD SVG 1.1//EN" "http://www.w3.org/Graphics/SVG/1.1/DTD/svg11.dtd"><svg t="1604458335450" class="icon" viewBox="0 0 1024 1024" version="1.1" xmlns="http://www.w3.org/2000/svg" p-id="2462" xmlns:xlink="http://www.w3.org/1999/xlink" width="200" height="200"><defs><style type="text/css"></style></defs><path d="M238.59351703 901.3971121h548.88422716c62.13783703 0 113.9193679-51.78153086 113.91936791-113.91936791V238.59351703c0-62.13783703-51.78153086-113.9193679-113.91936791-113.91936789H238.59351703c-62.13783703 0-113.9193679 51.78153086-113.91936789 113.91936789v548.88422716c0 62.13783703 49.71026963 113.9193679 113.91936789 113.91936791z m-62.13783703-662.80359507c0-33.14017975 26.92639605-62.13783703 62.13783703-62.13783703h548.88422716c33.14017975 0 62.13783703 26.92639605 62.13783705 62.13783703v548.88422716c0 33.14017975-26.92639605 62.13783703-62.13783705 62.13783705H238.59351703c-33.14017975 0-62.13783703-26.92639605-62.13783703-62.13783705V238.59351703z"  p-id="2463"></path><path d="M694.27098864 282.09000297h51.78153086v459.81999406h-51.78153086zM346.29910124 594.85044939h184.34224987l55.92405334 147.05954764H636.27567408l-176.05720494-459.81999406h-43.49648594l-180.19972739 459.81999406h51.78153086L346.29910124 594.85044939z m93.20675556-236.12378075l70.42288196 184.34224988H367.01171358l72.49414322-184.34224988z"  p-id="2464"></path></svg>