<?xml version="1.0" standalone="no"?><!DOCTYPE svg PUBLIC "-//W3C//DTD SVG 1.1//EN" "http://www.w3.org/Graphics/SVG/1.1/DTD/svg11.dtd"><svg t="1597891870682" class="icon" viewBox="0 0 1024 1024" version="1.1" xmlns="http://www.w3.org/2000/svg" p-id="3046" xmlns:xlink="http://www.w3.org/1999/xlink" width="200" height="200"><defs><style type="text/css"></style></defs><path d="M148 911.2h727.2c20 0 30.4 10.4 30.4 32s-10.4 32-30.4 32H148c-20 0-30.4-10.4-30.4-32 0.8-20.8 10.4-32 30.4-32z m371.2-281.6h111.2l-163.2 212 31.2-168.8H388l163.2-212-32 168.8zM512 44c20 0 30.4 10.4 30.4 32v128.8c0 21.6-10.4 32-30.4 32s-30.4-10.4-30.4-32V76c0-21.6 10.4-32 30.4-32z m500 465.6c0 17.6-13.6 32-30.4 32h-120.8c-16.8 0-30.4-14.4-30.4-32s13.6-32 30.4-32h121.6c16 0 29.6 14.4 29.6 32z m-818.4 0c0 17.6-13.6 32-30.4 32H42.4c-16.8 0-30.4-14.4-30.4-32s13.6-32 30.4-32h121.6c16 0 29.6 14.4 29.6 32zM160 184.8c12-12.8 31.2-12.8 43.2 0l85.6 91.2c12 12.8 12 32.8 0 45.6-12 12.8-31.2 12.8-43.2 0L160 230.4c-12-12.8-12-32.8 0-45.6z m704 0c-12-12.8-31.2-12.8-43.2 0L736 275.2c-12 12.8-12 32.8 0 45.6 12 12.8 31.2 12.8 43.2 0L864 230.4c12-12.8 12-32.8 0-45.6z" fill="#ffffff" p-id="3047"></path><path d="M750.4 590.4c-1.6-139.2-109.6-251.2-241.6-249.6-129.6 1.6-233.6 112.8-235.2 249.6v316.8h476.8V590.4zM512 264.8c169.6 0 307.2 145.6 307.2 325.6v389.6H204.8V590.4c0-180 137.6-325.6 307.2-325.6z" fill="#ffffff" p-id="3048"></path></svg>