<?xml version="1.0" standalone="no"?><!DOCTYPE svg PUBLIC "-//W3C//DTD SVG 1.1//EN" "http://www.w3.org/Graphics/SVG/1.1/DTD/svg11.dtd"><svg t="1599120976671" class="icon" viewBox="0 0 1024 1024" version="1.1" xmlns="http://www.w3.org/2000/svg" p-id="1637" xmlns:xlink="http://www.w3.org/1999/xlink" width="200" height="200"><defs><style type="text/css"></style></defs><path d="M146.375 905.75a28.125 28.125 0 1 1 0-56.25H230.75v-225a281.25 281.25 0 0 1 269.04375-280.96875L512 343.25a281.25 281.25 0 0 1 281.25 281.25v225h84.375a28.125 28.125 0 1 1 0 56.25h-731.25zM512 399.5a225 225 0 0 0-225 225v225h450v-225a225 225 0 0 0-213.75-224.71875z m438.69375-14.0625a28.125 28.125 0 0 1-10.29375 38.41875l-97.425 56.25a28.125 28.125 0 0 1-28.125-48.7125l97.425-56.25a28.125 28.125 0 0 1 38.41875 10.29375zM111.725 375.14375l97.425 56.25a28.125 28.125 0 1 1-28.125 48.7125l-97.425-56.25a28.125 28.125 0 1 1 28.125-48.7125zM779.1875 185.80625a28.125 28.125 0 0 1 10.29375 38.41875l-56.25 97.425a28.125 28.125 0 1 1-48.7125-28.125l56.25-97.425a28.125 28.125 0 0 1 38.41875-10.29375z m-495.95625 10.29375l56.25 97.425a28.125 28.125 0 1 1-48.7125 28.125l-56.25-97.425a28.125 28.125 0 1 1 48.7125-28.125zM512 118.25a28.125 28.125 0 0 1 28.125 28.125v112.5a28.125 28.125 0 0 1-56.25 0v-112.5A28.125 28.125 0 0 1 512 118.25z" p-id="1638"></path></svg>