<?xml version="1.0" standalone="no"?><!DOCTYPE svg PUBLIC "-//W3C//DTD SVG 1.1//EN" "http://www.w3.org/Graphics/SVG/1.1/DTD/svg11.dtd"><svg t="1604458218458" class="icon" viewBox="0 0 1024 1024" version="1.1" xmlns="http://www.w3.org/2000/svg" p-id="2169" xmlns:xlink="http://www.w3.org/1999/xlink" width="200" height="200"><defs><style type="text/css"></style></defs><path d="M512.09373031 76.99033437c21.46413844 0 43.11573656 9.1105425 64.36429594 27.07855688 23.5636875 19.92696844 46.07760094 50.61412594 65.10476344 88.62158531 20.33000719 40.65064125 36.35781375 88.34039531 47.65226156 141.73829813 11.86620094 56.11606875 17.88365813 115.83136406 17.88365813 177.50561437s-6.01745719 121.38954562-17.88365813 177.50561438C677.90185719 742.82853313 661.88342375 790.48079469 641.55341656 831.16892844 622.52625406 869.21387938 600.01234156 899.86354531 576.45802625 919.82800531c-21.23918719 17.96801437-42.89078531 27.07855688-64.36429594 27.07855782s-43.11573656-9.1105425-64.36429687-27.07855782c-23.5636875-19.92696844-46.06822781-50.61412594-65.1047625-88.62158437-20.33000719-40.65064125-36.35781375-88.34039531-47.6522625-141.73829906C323.1062075 633.31456156 317.04188562 573.59926625 317.04188562 511.92501594s6.01745719-121.38954562 17.88365813-177.50561344c11.29444875-53.42602219 27.33162844-101.08765688 47.65226156-141.73829906 19.0271625-38.05432406 41.541075-68.69461594 65.1047625-88.62158532 21.28605187-17.95864125 42.94702313-27.06918469 64.4111625-27.06918375m0-44.99033437c-132.54339844 0-239.94844875 214.87571063-239.94844875 479.8968975s107.451915 479.8968975 239.94844875 479.89689656 239.94844875-214.87571063 239.94844782-479.89689656-107.451915-479.8968975-239.94844782-479.8968975z" fill="" p-id="2170"></path><path d="M512.09373031 76.99033437c21.46413844 0 43.11573656 9.1105425 64.36429594 27.07855688 23.5636875 19.92696844 46.07760094 50.61412594 65.10476344 88.62158531 20.33000719 40.65064125 36.35781375 88.34039531 47.65226156 141.73829813 11.86620094 56.11606875 17.88365813 115.83136406 17.88365813 177.50561437s-6.01745719 121.38954562-17.88365813 177.50561438C677.90185719 742.82853313 661.88342375 790.48079469 641.55341656 831.16892844 622.52625406 869.21387938 600.01234156 899.86354531 576.45802625 919.82800531c-21.23918719 17.96801437-42.89078531 27.07855688-64.36429594 27.07855782s-43.11573656-9.1105425-64.36429687-27.07855782c-23.5636875-19.92696844-46.06822781-50.61412594-65.1047625-88.62158437-20.33000719-40.65064125-36.35781375-88.34039531-47.6522625-141.73829906C323.1062075 633.31456156 317.04188562 573.59926625 317.04188562 511.92501594s6.01745719-121.38954562 17.88365813-177.50561344c11.29444875-53.42602219 27.33162844-101.08765688 47.65226156-141.73829906 19.0271625-38.05432406 41.541075-68.69461594 65.1047625-88.62158532 21.28605187-17.95864125 42.94702313-27.06918469 64.4111625-27.06918375m0-44.99033437c-132.54339844 0-239.94844875 214.87571063-239.94844875 479.8968975s107.451915 479.8968975 239.94844875 479.89689656 239.94844875-214.87571063 239.94844782-479.89689656-107.451915-479.8968975-239.94844782-479.8968975z" fill="" p-id="2171"></path><path d="M276.33500656 239.45230531c97.76024719 0 219.22477594 37.76376188 333.25652625 103.59961688 53.42602219 30.83712469 102.11868562 65.90146687 144.77514657 104.23698094 40.60377656 36.48903562 73.88725125 74.18718656 98.93187 112.13840718 23.43246562 35.50487156 38.71980656 70.29739688 44.20300312 100.69399219 4.93956375 27.37849312 1.99644562 50.68911-8.73562312 69.27574125-9.65417625 16.7214075-25.82257687 29.92794562-48.06467344 39.26343938-24.90402469 10.45087969-56.134815 15.74661656-92.79256406 15.74661656-97.76961938 0-219.24352219-37.76376188-333.27527344-103.59961688-53.42602219-30.83712469-102.11868562-65.90146687-144.77514563-104.23698-40.60377656-36.4796625-73.87787813-74.215305-98.92249687-112.13840812-23.43246562-35.50487156-38.71980656-70.29739688-44.20300406-100.69399125-4.93956375-27.37849312-1.99644562-50.68911 8.73562312-69.27574219 9.65417625-16.7214075 25.82257687-29.92794562 48.06467438-39.26343937 24.90402469-10.45087969 56.14418812-15.74661656 92.83942875-15.74661657m0-44.99033437c-84.17878969 0-149.83655812 25.49452313-179.85823407 77.50522406C30.22850563 386.74878406 162.54695281 587.24633375 392.09138656 719.77098688c125.55115125 72.48130312 254.14852313 109.66393969 355.77043969 109.66393874 84.17878969 0 149.83655812-25.49452313 179.85823406-77.50522312 66.27638625-114.81908156-66.10767187-315.31663125-295.63336031-447.84128437-125.55115125-72.48130312-254.14852313-109.66393969-355.77043969-109.66393876z" fill="" p-id="2172"></path><path d="M747.88994562 239.45230531c36.69524156 0 67.91665875 5.29573688 92.79256407 15.74661657 22.23272344 9.37298625 38.42924344 22.49516719 48.05530031 39.26343937 10.73206969 18.58663219 13.67518688 41.89724906 8.73562313 69.27574219-5.47382438 30.36847594-20.76116437 65.18911969-44.20300313 100.69399125-25.03524656 37.93247531-58.31872031 75.65874563-98.92249688 112.13840812-42.63771469 38.33551406-91.34912438 73.39985531-144.75640031 104.24635313-114.03175125 65.82648281-235.50565313 103.59024469-333.26589937 103.59024375-36.70461469 0-67.93540406-5.29573688-92.79256407-15.74661656-22.23272344-9.37298625-38.42924344-22.49516719-48.06467437-39.26343938-10.73206969-18.58663219-13.67518688-41.89724906-8.73562313-69.27574125 5.47382438-30.36847594 20.76116437-65.18911969 44.20300407-100.69399219 24.99775406-37.95122156 58.28122875-75.6493725 98.87563218-112.13840718 42.66583312-38.33551406 91.36787063-73.40922844 144.77514563-104.23698094 114.03175125-65.83585594 235.50565313-103.59024469 333.28464562-103.59961688m0-44.99033437c-101.61254437 0-230.23803469 37.145145-355.77043968 109.66393969C162.54695281 436.61307125 30.22850563 637.11062094 96.45802625 751.89221094c29.99355562 52.01070094 95.67007125 77.50522312 179.85823406 77.50522312 101.61254437 0 230.23803469-37.145145 355.77043969-109.66393969C861.6123875 587.24633375 993.99644563 386.74878406 927.72943344 271.967195c-29.99355562-52.01070094-95.67007125-77.50522312-179.85823406-77.50522406z" fill="" p-id="2173"></path><path d="M482.00644438 534.59826969H362.03222a22.49516719 22.49516719 0 0 1 0-44.99033344h119.97422437a22.49516719 22.49516719 0 0 1 0 44.99033344z" fill="" p-id="2174"></path><path d="M422.01933219 594.58538188a22.49516719 22.49516719 0 0 1-22.49516719-22.49516719V452.11599031a22.49516719 22.49516719 0 0 1 44.99033344 0v119.97422438a22.49516719 22.49516719 0 0 1-22.49516625 22.49516718zM661.96778 534.59826969h-89.98066781a22.49516719 22.49516719 0 0 1 0-44.99033344h89.98066781a22.49516719 22.49516719 0 0 1 0 44.99033344z" fill="" p-id="2175"></path></svg>