<?xml version="1.0" standalone="no"?><!DOCTYPE svg PUBLIC "-//W3C//DTD SVG 1.1//EN" "http://www.w3.org/Graphics/SVG/1.1/DTD/svg11.dtd"><svg t="1597891837576" class="icon" viewBox="0 0 1024 1024" version="1.1" xmlns="http://www.w3.org/2000/svg" p-id="1968" xmlns:xlink="http://www.w3.org/1999/xlink" width="200" height="200"><defs><style type="text/css"></style></defs><path d="M959 863.75c-0.69-16.22-12.36-29.93-28.12-29.93H833.5V544.44c0-15.7-13.8-30.73-30-30s-30 13.18-30 30v289.38h-132V660.94c0-15.7-13.8-30.73-30-30s-30 13.18-30 30v172.88h-132V582.94c0-15.7-13.8-30.73-30-30s-30 13.18-30 30v250.88H257.69v-134c0-15.69-13.8-30.72-30-30s-30 13.19-30 30v134h-70.43c-10.9 0-21.81-0.14-32.72 0h-1.4c-14.71 0-28.8 13.77-28.12 29.93s12.36 29.94 28.12 29.94h803.6c10.9 0 21.81 0.14 32.72 0h1.4c14.71 0 28.8-13.77 28.14-29.94z" fill="#ffffff" p-id="1969"></path><path d="M874.91 130.26l-71.48 2.6-112.9 4.14-26.28 1c-15.66 0.57-30.74 13.39-30 30 0.71 15.76 13.2 30.61 30 30l71.49-2.6 58.48-2.13L741 242l-94.44 86.61-81.36 74.61c-5.95 5.46-12 10.86-18 16.29l-35-36-87.9-90.26-20.12-20.65c-11.4-11.7-30.94-11.23-42.43 0l-79.34 77.54L156.72 473l-29 28.32c-11.24 11-11.84 31.55 0 42.42 12.09 11.1 30.44 11.73 42.43 0l79.34-77.54 125.64-122.8 7.24-7.08 34.49 35.41L504.77 462l20.11 20.65c11.66 12 30.6 10.85 42.43 0l32.54-29.85 77.78-71.32 94.43-86.61L844.91 228v132.4c0 15.7 13.8 30.73 30 30s30-13.18 30-30V160.26c0-15.78-13.74-30.59-30-30z" fill="#ffffff" p-id="1970"></path></svg>