<?xml version="1.0" standalone="no"?><!DOCTYPE svg PUBLIC "-//W3C//DTD SVG 1.1//EN" "http://www.w3.org/Graphics/SVG/1.1/DTD/svg11.dtd"><svg t="1597892514811" class="icon" viewBox="0 0 1280 1024" version="1.1" xmlns="http://www.w3.org/2000/svg" p-id="1097" xmlns:xlink="http://www.w3.org/1999/xlink" width="250" height="200"><defs><style type="text/css"></style></defs><path d="M556.07964446 705.20983703c0 12.86447408 10.31585185 23.05896297 22.93759999 23.05896297 4.2477037 0 8.25268148-1.21362963 11.77220741-3.15543703l166.75271111-97.09037038c7.76722963-3.64088889 13.22856297-11.52948148 13.22856295-20.87442962 0-8.49540741-4.61179259-16.14127408-11.52948147-20.14625186L596.37214815 492.09647408c-6.91768889-4.61179259-13.1072-7.76722963-19.90352593-7.76722963-12.74311111 0-20.51034075 11.04402963-20.51034074 23.66577777V508.7232l0.36408889 193.93801482c-0.24272592 0.84954075-0.24272592 1.69908148-0.24272591 2.54862221z" fill="#ffffff" p-id="1098"></path><path d="M991.0445037 77.88468148H278.88663703c-68.32734815 0-124.27567408 55.94832592-124.27567406 124.27567407v621.13564445c0 68.32734815 55.94832592 124.27567408 124.27567406 124.27567408H553.89511111v0.12136295h395.64325926v-0.12136295h41.50613333c68.32734815 0 124.27567408-55.94832592 124.27567408-124.27567408V202.16035555c0-68.32734815-55.94832592-124.27567408-124.27567408-124.27567407z m-188.35531851 61.89511111l71.84687406 124.5184h-88.23087407l-71.84687407-124.5184H802.68918519z m-162.74773333 0l71.84687406 124.5184h-88.1095111l-71.84687407-124.5184h88.10951111z m-162.74773334 0L549.04059259 264.29819259h-93.20675556l-71.96823703-124.5184h93.32811853z m-260.56628148 62.13783704c0-25.85031111 15.89854815-48.05973333 38.47205927-57.40468148l65.77872591-0.12136297 60.43875556 119.90660741H218.44788148c-0.60681482 0-1.21362963 0-1.82044444 0.12136296v-62.50192592z m836.91899259 620.52882962c0 34.22435555-27.91348148 62.86601482-62.13783704 62.86601483H278.76527409c-34.22435555 0-62.13783703-28.76302222-62.13783705-62.86601483v-496.3745185c0.60681482 0 1.21362963 0.12136297 1.82044444 0.12136295h834.9771852v496.25315555h0.12136295z m0-558.14826666h-104.49351111l-71.84687407-124.5184h114.20254814c34.22435555 0 62.13783703 27.91348148 62.13783704 62.13783704v62.38056296z" fill="#ffffff" p-id="1099"></path></svg>