<?xml version="1.0" encoding="UTF-8"?>
<svg width="12px" height="16px" viewBox="0 0 12 16" version="1.1" xmlns="http://www.w3.org/2000/svg" xmlns:xlink="http://www.w3.org/1999/xlink">
    <!-- Generator: Sketch 64 (93537) - https://sketch.com -->
    <title>bells</title>
    <desc>Created with Sketch.</desc>
    <defs>
        <polygon id="path-1" points="1.35391784e-19 2.22044876e-15 1.35391784e-19 16 11.9869707 16 11.9869707 0"></polygon>
    </defs>
    <g id="智能视频" stroke="none" stroke-width="1" fill="none" fill-rule="evenodd" opacity="0.65">
        <g id="摄像头管理_地图模式" transform="translate(-1744.000000, -16.000000)">
            <g id="top" transform="translate(240.000000, 0.000000)">
                <g id="编组-6备份">
                    <g id="Group-19-Copy-4" transform="translate(1502.000000, 13.000000)">
                        <g id="bells" transform="translate(2.003252, 3.000000)">
                            <mask id="mask-2" fill="white">
                                <use xlink:href="#path-1"></use>
                            </mask>
                            <g id="Clip-2"></g>
                            <path d="M11.4251576,13.0000549 L10.9880727,13.0000549 L10.9880727,5.99998779 C10.9880727,3.42812918 9.049568,1.31095863 6.55539593,1.03127079 L6.55539593,0.562520218 C6.55539593,0.251543276 6.30412526,0 5.99348534,0 C5.68292346,0 5.43157475,0.251543276 5.43157475,0.562520218 L5.43157475,1.03127079 C2.93742219,1.31095863 0.998897965,3.42812918 0.998897965,5.99998779 L0.998897965,13.0000549 L0.56191059,13.0000549 C0.251270667,13.0000549 0,13.2515787 0,13.5624775 C0,13.8734544 0.251270667,14.1249977 0.56191059,14.1249977 L4.86976171,14.1249977 L4.86976171,14.8750572 C4.86976171,15.4969134 5.37228354,16 5.99348534,16 C6.61468715,16 7.11730652,15.4969134 7.11730652,14.8750572 L7.11730652,14.1249977 L11.4251576,14.1249977 C11.7357195,14.1249977 11.9869707,13.8734544 11.9869707,13.5624775 C11.9869707,13.2515787 11.7357195,13.0000549 11.4251576,13.0000549 Z M9.86434909,13.0000549 L2.12271915,13.0000549 L2.12271915,5.99998779 C2.12271915,3.85941877 3.85523615,2.12502213 5.99348534,2.12502213 C8.13183208,2.12502213 9.86434909,3.85941877 9.86434909,5.99998779 L9.86434909,13.0000549 Z" id="Fill-1" fill="#000000" mask="url(#mask-2)"></path>
                        </g>
                    </g>
                </g>
            </g>
        </g>
    </g>
</svg>