<?xml version="1.0" standalone="no"?><!DOCTYPE svg PUBLIC "-//W3C//DTD SVG 1.1//EN" "http://www.w3.org/Graphics/SVG/1.1/DTD/svg11.dtd"><svg t="1600071322553" class="icon" viewBox="0 0 1910 1024" version="1.1" xmlns="http://www.w3.org/2000/svg" p-id="769" xmlns:xlink="http://www.w3.org/1999/xlink" width="373.046875" height="200"><defs><style type="text/css"></style></defs><path d="M480.368 342.823c-155.46 0-282.342 125.74-282.342 282.343s125.739 282.342 282.342 282.342c155.46 0 282.342-125.74 282.342-282.342S636.97 342.823 480.368 342.823z m0 494.957c-117.738 0-213.757-96.02-213.757-213.758s96.019-212.614 213.757-212.614 213.757 96.02 213.757 213.758-96.02 212.614-213.757 212.614z m911.04-494.957c-155.46 0-282.343 125.74-282.343 282.343s125.74 282.342 282.342 282.342c155.46 0 282.343-125.74 282.343-282.342s-126.883-282.343-282.343-282.343z m0 494.957c-117.738 0-213.758-96.02-213.758-213.758s96.02-212.614 213.757-212.614 213.758 96.02 213.758 213.758-96.02 212.614-213.758 212.614z" p-id="770"></path><path d="M1105.636 326.82L910.168 587.444c-3.43 4.572-12.574 10.287-17.146 11.43H553.525l195.468-260.623c3.43-4.572 12.574-10.288 17.146-11.431h339.497m80.016-58.297H764.996c-19.432 0-48.01 16.003-61.726 35.435L463.222 622.88c-14.86 19.433-10.288 35.436 10.287 35.436h420.656c19.432 0 48.01-16.003 61.727-35.436l238.905-318.92c14.86-19.433 10.287-35.436-9.145-35.436z m-344.069 0H569.529c-22.862 0-41.152-18.29-41.152-41.151s18.29-41.152 41.152-41.152h272.054m220.616 12.574H902.167c-22.862 0-41.152-18.289-41.152-41.15s18.29-41.152 41.152-41.152h161.175c22.861 0 41.15 18.29 41.15 41.151-1.142 22.862-19.432 41.151-42.293 41.151z" p-id="771"></path><path d="M1367.403 636.596L1034.765 186.22c-13.717-18.289-9.145-43.437 9.144-57.154 18.29-13.717 43.438-9.145 57.155 9.145l332.638 450.376c13.717 18.29 9.144 43.437-9.145 57.154-18.29 12.574-44.58 9.145-57.154-9.145z" p-id="772"></path></svg>