<?xml version="1.0" standalone="no"?><!DOCTYPE svg PUBLIC "-//W3C//DTD SVG 1.1//EN" "http://www.w3.org/Graphics/SVG/1.1/DTD/svg11.dtd"><svg t="1602742909550" class="icon" viewBox="0 0 1024 1024" version="1.1" xmlns="http://www.w3.org/2000/svg" p-id="1316" xmlns:xlink="http://www.w3.org/1999/xlink" width="200" height="200"><defs><style type="text/css"></style></defs><path d="M846.83 284.393c-18.704-44.336-45.567-84.131-79.82-118.23-34.253-34.253-74.048-60.962-118.23-79.82-45.952-19.398-94.6-29.173-144.94-29.173s-98.91 9.853-144.862 29.404c-44.335 18.703-84.13 45.567-118.229 79.82-34.252 34.253-60.962 74.047-79.82 118.23-19.397 45.952-29.327 94.599-29.327 144.939 0 50.263 9.776 98.986 29.327 144.938 18.704 44.336 45.568 84.131 79.82 118.23 34.253 34.253 74.048 60.962 118.23 79.82 10.853 4.542 22.014 8.698 33.175 12.239l-51.34 127.312h-66.197c-18.165 0-32.637 14.702-32.637 32.79 0 18.166 14.702 32.637 32.638 32.637H732.91c18.166 0 32.636-14.701 32.636-32.637 0-18.165-14.702-32.79-32.636-32.79h-60.27l-50.955-129.39c23.553-7.85 46.414-18.165 68.12-30.711 55.497-32.097 102.143-78.358 134.625-133.547 33.483-56.883 51.34-122.232 51.34-188.737 0.231-50.725-9.543-99.448-28.941-145.323z m-64.965 308.351c-28.249 47.8-68.582 87.98-116.767 115.766-48.723 28.25-104.374 43.105-161.18 43.105-86.055 0-167.108-33.483-227.993-94.445-60.962-60.962-94.444-141.783-94.444-227.993 0-86.055 33.56-167.106 94.444-227.992 60.963-60.962 141.784-94.445 227.994-94.445 86.055 0 167.107 33.56 227.992 94.445 60.962 60.963 94.445 141.784 94.445 227.993 0 57.575-15.317 114.15-44.49 163.566zM394.617 911.333l46.414-115.382a378.894 378.894 0 0 0 62.888 5.234c23.399 0 46.644-2.231 69.505-6.465l45.953 116.613h-224.76z" p-id="1317"></path><path d="M503.764 283.546c-99.603 0-180.731 81.052-180.731 180.731 0 99.602 81.051 180.732 180.731 180.732s180.731-81.053 180.731-180.732-81.13-180.73-180.73-180.73z m0 315.971c-74.51 0-135.164-60.577-135.164-135.163 0-74.51 60.578-135.164 135.164-135.164 74.509 0 135.163 60.578 135.163 135.164-0.077 74.586-60.654 135.163-135.163 135.163z m0-345.144c25.631 0 46.645-20.936 46.645-46.645s-20.936-46.646-46.645-46.646-46.645 20.938-46.645 46.646 20.936 46.645 46.645 46.645z" p-id="1318"></path></svg>