<?xml version="1.0" standalone="no"?><!DOCTYPE svg PUBLIC "-//W3C//DTD SVG 1.1//EN" "http://www.w3.org/Graphics/SVG/1.1/DTD/svg11.dtd"><svg t="1600074689006" class="icon" viewBox="0 0 1024 1024" version="1.1" xmlns="http://www.w3.org/2000/svg" p-id="2684" xmlns:xlink="http://www.w3.org/1999/xlink" width="200" height="200"><defs><style type="text/css"></style></defs><path d="M846.83 284.3928125c-18.7040625-44.33625-45.5671875-84.13125-79.820625-118.23-34.2525-34.2525-74.0475-60.961875-118.2290625-79.820625-45.9525-19.396875-94.599375-29.1721875-144.939375-29.1721875s-98.91 9.853125-144.8625 29.40375c-44.3353125 18.703125-84.13125 45.5671875-118.2290625 79.8196875-34.2525 34.2534375-60.961875 74.0475-79.820625 118.23-19.396875 45.9525-29.326875 94.599375-29.326875 144.939375 0 50.263125 9.77625 98.9859375 29.326875 144.9384375 18.7040625 44.33625 45.568125 84.13125 79.820625 118.23 34.2525 34.2525 74.0475 60.961875 118.2290625 79.820625 10.8534375 4.54125 22.014375 8.6971875 33.1753125 12.238125l-51.3403125 127.3125h-66.196875c-18.165 0-32.63625 14.701875-32.63625 32.79 0 18.1659375 14.701875 32.63625 32.6371875 32.63625h458.293125c18.1659375 0 32.63625-14.7009375 32.63625-32.63625 0-18.165-14.701875-32.79-32.63625-32.79h-60.2690625L621.685625 782.7125c23.55375-7.850625 46.4146875-18.165 68.120625-30.7115625 55.4971875-32.0971875 102.1425-78.358125 134.625-133.546875 33.4828125-56.8828125 51.3403125-122.2321875 51.3403125-188.7375 0.230625-50.724375-9.54375-99.4471875-28.9415625-145.3228125z m-64.965 308.35125c-28.24875 47.8003125-68.581875 87.9796875-116.7665625 115.76625-48.72375 28.24875-104.3746875 43.104375-161.180625 43.104375-86.055 0-167.1075-33.4828125-227.9925-94.4446875-60.961875-60.961875-94.4446875-141.7828125-94.4446875-227.9925 0-86.055 33.5596875-167.1065625 94.4446875-227.9925C336.888125 140.223125 417.7090625 106.7403125 503.91875 106.7403125c86.055 0 167.1075 33.5596875 227.9925 94.4446875 60.961875 60.9628125 94.4446875 141.78375 94.4446875 227.9925 0 57.575625-15.316875 114.15-44.49 163.5665625zM394.6175 911.3328125L441.03125 795.9509375a378.894375 378.894375 0 0 0 62.8875 5.2340625c23.3990625 0 46.644375-2.23125 69.5053125-6.465l45.9525 116.6128125H394.6175z" fill="#ffffff" p-id="2685"></path><path d="M503.7640625 283.54625c-99.6028125 0-180.73125 81.0515625-180.73125 180.73125 0 99.601875 81.0515625 180.73125 180.73125 180.73125s180.73125-81.0525 180.73125-180.73125-81.129375-180.73125-180.73125-180.73125z m0 315.97125c-74.5096875 0-135.1640625-60.5775-135.1640625-135.163125 0-74.5096875 60.5775-135.1640625 135.1640625-135.1640625 74.50875 0 135.163125 60.5775 135.163125 135.1640625-0.076875 74.585625-60.654375 135.163125-135.163125 135.163125z m0-345.144375c25.63125 0 46.6453125-20.93625 46.6453125-46.6453125s-20.93625-46.6453125-46.6453125-46.6453125-46.6453125 20.9371875-46.6453125 46.6453125 20.93625 46.6453125 46.6453125 46.6453125z" fill="#ffffff" p-id="2686"></path></svg>