<?xml version="1.0" standalone="no"?><!DOCTYPE svg PUBLIC "-//W3C//DTD SVG 1.1//EN" "http://www.w3.org/Graphics/SVG/1.1/DTD/svg11.dtd"><svg t="1600570565534" class="icon" viewBox="0 0 1027 1024" version="1.1" xmlns="http://www.w3.org/2000/svg" p-id="1686" xmlns:xlink="http://www.w3.org/1999/xlink" width="200.5859375" height="200"><defs><style type="text/css"></style></defs><path d="M416.436 159.2a652.95 652.95 0 0 1 193.05 0c45 9 90 16.2 132.3 27.9a94.5 94.5 0 0 1 66.6 62.55q27.45 77.4 57.6 153.45c3.6 8.55 14.4 21.15 20.7 20.25a66.6 66.6 0 0 1 76.5 53.1 58.05 58.05 0 0 1 0 27.9l-51.3 13.95a453.6 453.6 0 0 1 6.3 54v249.3a71.1 71.1 0 0 1-15.3 41.4 421.2 421.2 0 0 1-144 2.7c-33.3-21.15-12.6-56.7-23.4-85.5h-437.4c-8.55 30.6-13.5 81.9-23.4 85.5a427.5 427.5 0 0 1-147.6 0 80.55 80.55 0 0 1-16.2-47.7c-2.7-36-2.7-70.2-2.7-105.3 0-65.25 0-130.5 2.7-196.2l-47.7-12.6a51.75 51.75 0 0 1 0-22.05c13.5-36 31.5-63.9 77.85-59.85 5.4 0 15.75-10.8 18.9-18.9a1211.4 1211.4 0 0 0 45-122.85 153 153 0 0 1 135-111.15c24.75-4.5 50.4-7.65 75.15-11.7z m-198.9 278.1a1421.55 1421.55 0 0 0 588.6 0c-16.65-49.95-33.3-94.5-45-139.5a74.7 74.7 0 0 0-74.7-59.85c-93.15-4.05-186.75-7.2-279.9-8.1a398.25 398.25 0 0 0-90 13.95 51.3 51.3 0 0 0-32.85 22.5c-25.2 54.45-44.1 110.7-66.15 171z m38.25 212.4a219.6 219.6 0 0 0 48.15-2.7 45 45 0 0 0 29.25-22.05c2.25-6.75-8.1-23.4-17.1-27.45a1051.65 1051.65 0 0 0-112.5-45c-18.9-6.3-40.5-4.95-45 21.6-9 39.15 0 60.75 29.25 67.05 22.95 4.5 45 5.4 70.2 7.65z m518.85 0a642.15 642.15 0 0 0 70.65-9c33.75-7.65 26.55-35.1 25.65-58.95s-13.5-35.1-31.95-29.7a975.6 975.6 0 0 0-135 51.3c-19.8 9.45-12.6 35.55 9.9 40.5a506.7 506.7 0 0 0 60.75 5.4z" p-id="1687"></path></svg>