<?xml version="1.0" standalone="no"?><!DOCTYPE svg PUBLIC "-//W3C//DTD SVG 1.1//EN" "http://www.w3.org/Graphics/SVG/1.1/DTD/svg11.dtd"><svg t="1597892522079" class="icon" viewBox="0 0 1024 1024" version="1.1" xmlns="http://www.w3.org/2000/svg" p-id="1276" xmlns:xlink="http://www.w3.org/1999/xlink" width="200" height="200"><defs><style type="text/css"></style></defs><path d="M129.5 242h765c13.5 0 22.5-9 22.5-22.5s-9-22.5-22.5-22.5h-765c-13.5 0-22.5 9-22.5 22.5s9 22.5 22.5 22.5zM872 332H152C102.5 332 62 372.5 62 422v450c0 49.5 40.5 90 90 90h720c49.5 0 90-40.5 90-90V422c0-49.5-40.5-90-90-90z m45 540c0 27-18 45-45 45H152c-27 0-45-18-45-45V422c0-27 18-45 45-45h720c27 0 45 18 45 45v450z" fill="#ffffff" p-id="1277"></path><path d="M737 647c-4.5 0-9 0-13.5 4.5L602 525.5c0-4.5 4.5-9 4.5-13.5 0-27-18-45-45-45s-45 18-45 45c0 9 4.5 13.5 4.5 22.5L422 692h-9l-85.5-117c0-4.5 4.5-9 4.5-18 0-27-18-45-45-45s-45 18-45 45 18 45 45 45l90 121.5v13.5c0 27 18 45 45 45s45-18 45-45c0-9-4.5-13.5-4.5-22.5L557 557h9l126 130.5v9c0 27 18 45 45 45s45-18 45-45c0-31.5-18-49.5-45-49.5zM219.5 107h585c13.5 0 22.5-9 22.5-22.5s-9-22.5-22.5-22.5h-585c-13.5 0-22.5 9-22.5 22.5s9 22.5 22.5 22.5z" fill="#ffffff" p-id="1278"></path></svg>