<?xml version="1.0" standalone="no"?><!DOCTYPE svg PUBLIC "-//W3C//DTD SVG 1.1//EN" "http://www.w3.org/Graphics/SVG/1.1/DTD/svg11.dtd"><svg t="1597890679322" class="icon" viewBox="0 0 1024 1024" version="1.1" xmlns="http://www.w3.org/2000/svg" p-id="1065" xmlns:xlink="http://www.w3.org/1999/xlink" width="200" height="200"><defs><style type="text/css"></style></defs><path d="M562.064 483.0464c-17.7936 0-34.7904 4.3296-50.0544 12.6576a104.1696 104.1696 0 0 0-50.0544-12.6576c-57.9312 0-105.0096 47.0832-105.0096 105 0 35.5968 24.9552 75.096 74.1024 117.384 34.1616 29.4432 67.8672 49.7856 69.3024 50.592a22.1472 22.1472 0 0 0 11.568 3.2592 23.664 23.664 0 0 0 11.6544-3.168c1.3584-0.8976 35.1456-20.9424 69.4032-50.2368 49.1616-42.1008 74.0928-81.7824 74.0928-117.8304-0.0048-57.9216-47.088-105-105.0048-105z m1.9104 188.2416c-19.8 16.9728-39.8448 30.7968-51.9648 38.7408-12.1968-8.04-32.2752-22.056-52.0464-39.1152-37.3248-32.2464-57.9168-61.6368-57.9168-82.7616 0-32.9808 26.832-59.8224 59.8128-59.8224 13.2768 0 25.8384 4.2384 36.3216 12.2832a22.5312 22.5312 0 0 0 27.4752 0 59.136 59.136 0 0 1 36.3168-12.2832c32.9808 0 59.8224 26.8416 59.8224 59.8224 0.0048 21.5856-20.5152 51.024-57.8208 83.136z" fill="#ffffff" p-id="1066"></path><path d="M960.0224 486.0896l-429.5856-373.1808a29.0592 29.0592 0 0 0-38.1792 0L66.1472 489.1184a29.5056 29.5056 0 0 0-7.8096 31.6752 29.5104 29.5104 0 0 0 28.632 18.6576h58.152v295.4928a106.7856 106.7856 0 0 0 22.56 74.6592 86.88 86.88 0 0 0 67.6992 28.1952h541.536a102.7344 102.7344 0 0 0 68.5488-25.5936 100.176 100.176 0 0 0 30.3744-77.6736V536.864h66.3936a29.2608 29.2608 0 0 0 20.232-9.7392 29.0736 29.0736 0 0 0-2.4432-41.0352z m-113.2416-3.4752l-0.4608 0.0144a28.6176 28.6176 0 0 0-27.7536 29.4912v324.144a38.6064 38.6064 0 0 1-43.3872 45.5472H234.512a30.3024 30.3024 0 0 1-24.3024-7.8096 52.92 52.92 0 0 1-7.3776-32.976v-328.4784l1.3008-2.1696a29.064 29.064 0 0 0-28.632-28.632h-11.2848l347.136-309.3936 355.8096 310.2624h-20.3808z" fill="#ffffff" p-id="1067"></path></svg>