<?xml version="1.0" standalone="no"?><!DOCTYPE svg PUBLIC "-//W3C//DTD SVG 1.1//EN" "http://www.w3.org/Graphics/SVG/1.1/DTD/svg11.dtd"><svg t="1597891850027" class="icon" viewBox="0 0 1102 1024" version="1.1" xmlns="http://www.w3.org/2000/svg" p-id="2330" xmlns:xlink="http://www.w3.org/1999/xlink" width="215.234375" height="200"><defs><style type="text/css"></style></defs><path d="M548.60516562 32C263.29151281 32 32 268.67896719 32 560.7822875c0 172.98892969 81.18081188 326.49446531 206.64206625 422.95203l0.07380094-0.14760187a36.01476 36.01476 0 0 0 22.36162312 7.82287875 36.7527675 36.7527675 0 0 0 36.30996375-37.19557219 37.34317312 37.34317312 0 0 0-17.85977906-32.02952063A450.40590375 450.40590375 0 0 1 181.07749062 815.7638375l44.57564626-26.34686344a33.50553469 33.50553469 0 0 0 11.80811812-45.16605187 31.88191875 31.88191875 0 0 0-44.13284156-12.02952l-44.57564625 26.2730625a457.04797031 457.04797031 0 0 1-42.95202938-164.72324719h51.21771281c17.85977906 0 32.32472344-14.76014719 32.3247225-32.98893a32.61992625 32.61992625 0 0 0-32.3247225-33.06273h-51.21771281a461.99262 461.99262 0 0 1 43.17343219-165.31365375l44.35424344 26.27306344c15.49815469 9.15129188 35.2767525 3.69003656 44.13284156-12.02952094a33.50553469 33.50553469 0 0 0-11.80811812-45.16605188l-44.28044344-26.12546062a452.2509225 452.2509225 0 0 1 117.63837656-120.44280469l25.535055 45.38745375c8.85608812 15.7933575 28.63468594 21.18081187 44.05904063 12.02952094a33.50553469 33.50553469 0 0 0 11.80811812-45.09225094l-25.60885594-45.46125469a432.25092281 432.25092281 0 0 1 161.47601532-44.2066425v52.472325c0 18.30258281 14.39114438 33.06273094 32.2509225 33.06273s32.32472344-14.76014719 32.3247225-33.06273v-52.39852406a434.46494438 434.46494438 0 0 1 160.88560968 43.91143875l-25.68265687 45.6826575a33.50553469 33.50553469 0 0 0 11.80811812 45.09225094c15.42435469 9.15129188 35.20295156 3.69003656 44.05904063-12.02952094l25.75645687-45.68265656a450.33210375 450.33210375 0 0 1 118.08118125 120.7380075l-44.35424343 26.12546062a33.50553469 33.50553469 0 0 0-11.80811813 45.16605188c8.85608812 15.7933575 28.63468594 21.18081187 44.13284063 12.02952094l44.35424437-26.1992625c23.98524 50.47970438 39.11439094 106.34686312 43.17343125 165.23985281h-51.21771187c-17.85977906 0-32.32472344 14.76014719-32.32472344 33.06273 0 18.22878187 14.46494437 32.98893 32.32472344 32.98893h51.21771187a460.59040594 460.59040594 0 0 1-42.95202937 164.72324719l-44.57564625-26.2730625a31.88191875 31.88191875 0 0 0-44.13284063 12.02952 33.50553469 33.50553469 0 0 0 11.80811813 45.16605187l44.57564531 26.34686344a450.92250938 450.92250938 0 0 1-101.10701063 108.48708469l0.22140188 0.36900375a37.34317312 37.34317312 0 0 0-14.31734344 29.59409625c0 20.59040625 16.23616219 37.19557219 36.30996375 37.19557218a35.86715906 35.86715906 0 0 0 25.97785969-11.14391156A532.10332125 532.10332125 0 0 0 1065.21033219 560.7822875C1065.21033219 268.67896719 833.91881937 32 548.60516562 32z" fill="#ffffff" p-id="2331"></path><path d="M707.64575656 392.14760188L580.78228812 493.69741719A70.55350594 70.55350594 0 0 0 548.60516562 486.02214031a73.505535 73.505535 0 0 0-72.61992562 74.31734344c0 41.10701063 32.47232437 74.39114437 72.61992562 74.39114344s72.61992656-33.28413281 72.61992657-74.39114344a71.2915125 71.2915125 0 0 0-1.25461219-14.02214063l127.38007312-102.06642093a33.57933562 33.57933562 0 0 0 5.60885625-46.34686313 31.73431688 31.73431688 0 0 0-45.31365281-5.68265718z" fill="#ffffff" p-id="2332"></path></svg>