<?xml version="1.0" encoding="UTF-8"?>
<svg width="56px" height="54px" viewBox="0 0 56 54" version="1.1" xmlns="http://www.w3.org/2000/svg" xmlns:xlink="http://www.w3.org/1999/xlink">
    <!-- Generator: Sketch 64 (93537) - https://sketch.com -->
    <title>监控 摄像头</title>
    <desc>Created with Sketch.</desc>
    <g id="Page-1" stroke="none" stroke-width="1" fill="currentColor" fill-rule="evenodd">
        <g id="首页" transform="translate(-572.000000, -95.000000)" fill-rule="nonzero">
            <g id="编组-13备份" transform="translate(544.000000, 68.000000)">
                <g id="监控-摄像头" transform="translate(24.000000, 22.000000)">
                    <rect id="矩形" opacity="0" x="0" y="0" width="65" height="65"></rect>
                    <path d="M11.0823511,42.4868441 C11.3701429,42.5082604 11.6246489,42.6815946 11.7499989,42.9415534 C15.7452713,51.233355 24.2709982,56.5903634 33.4693408,56.5903634 C37.3792253,56.5903634 41.2285053,55.6412937 44.6650368,53.837235 C44.6529075,53.7536784 44.6444795,53.6699234 44.6386705,53.5853902 C44.566271,52.5481916 44.9071315,51.52478 45.5853873,50.7429344 C46.2606671,49.9570137 47.2193752,49.4772904 48.2472177,49.410994 C50.3804587,49.2759108 52.223587,50.9018443 52.3793771,53.0562183 C52.5212235,55.2152114 50.9082789,57.0833824 48.772451,57.2338911 C48.6844086,57.2371519 48.5963147,57.238806 48.5082132,57.238806 C47.1202585,57.2369075 45.8940997,56.4969074 45.2081796,55.3761111 C41.581622,57.237553 37.557898,58.2113548 33.4693408,58.2089508 C23.6549728,58.2089508 14.5584927,52.4913546 10.2948208,43.6433167 C10.1694708,43.3833578 10.1923202,43.0762683 10.354762,42.8377257 C10.5172038,42.5991832 10.7945592,42.4654278 11.0823511,42.4868441 Z M48.5114554,51.0378289 C48.4595805,51.0378289 48.4093267,51.0411055 48.3558307,51.0443821 C47.757443,51.0822772 47.199392,51.3621985 46.8076894,51.8209378 C46.441918,52.2434008 46.2480127,52.7756365 46.2512982,53.3319059 C46.2775018,53.3418787 46.3015137,53.3541719 46.3250133,53.3677398 C46.5751395,53.5121551 46.7292295,53.7790493 46.7292295,54.0678861 C46.7292295,54.2305644 46.6803543,54.3862833 46.5929715,54.5170807 C47.0199737,55.2103508 47.8002548,55.6501256 48.6622168,55.5972263 C49.8624474,55.496155 50.773333,54.4615428 50.7331081,53.2450437 C50.6928832,52.0285446 49.715685,51.0576969 48.5114554,51.0378289 Z M46.082285,6.7858846 C46.8580671,7.47028739 47.3320523,8.43886662 47.3993874,9.47735723 C47.4307058,9.92827735 47.3839861,10.3765742 47.2654518,10.8035627 C54.6496595,15.5189173 59.1609706,23.6859489 59.1791045,32.4991871 C59.1791045,37.6524577 57.6608686,42.6230111 54.7860834,46.8756317 C54.6358168,47.0979579 54.3850348,47.2313686 54.1167015,47.2313686 C53.817204,47.2323503 53.5418044,47.0673424 53.401392,46.8027807 C53.2609797,46.5382191 53.2786621,46.2176425 53.4473195,45.9701307 C56.137075,41.9939098 57.5706436,37.3014243 57.5622399,32.500804 C57.5457237,24.288542 53.366276,16.6748011 46.5151573,12.2434739 L46.4526706,12.319813 L46.4526706,12.319813 C45.7170599,13.1771133 44.6477876,13.6671645 43.5249814,13.6616304 C41.4875432,13.6570774 39.7998343,12.0622966 39.6586808,10.0081674 C39.515921,7.84886284 41.1293499,5.98013098 43.2656069,5.83049465 C44.292866,5.75766599 45.3065028,6.10148181 46.082285,6.7858846 Z M24.2537313,33.1824993 L26.8174016,34.0633261 L26.8174016,37.5850379 L28.7160596,37.5850379 C29.0481677,37.5843118 29.3655654,37.4488532 29.594711,37.2100482 L29.594711,37.2100482 L30.383409,36.3962408 L32.1969326,38.2632107 L31.5206762,38.960532 C30.7351908,39.7695523 29.6702075,40.2243271 28.5586412,40.2243271 L28.5586412,40.2243271 L26.8174016,40.2243271 L26.8174016,43.7460388 L24.2537313,44.6268657 L24.2537313,33.1824993 Z M26.5941245,28.1544459 L39.9714714,41.931727 C40.053886,42.0169707 40.1786549,42.046867 40.291127,42.0083206 L40.291127,42.0083206 L42.5094406,41.2264272 L41.5890252,42.464691 C41.1729314,43.0393066 40.5207448,43.3998717 39.8098688,43.4483078 C39.0989928,43.496744 38.4033566,43.2280141 37.9121824,42.7152161 L37.9121824,42.7152161 L24.5798122,28.9842104 L26.5941245,28.1544459 Z M30.2789989,20.7503941 C30.5650117,20.4514697 30.9843443,20.3174242 31.3921715,20.3945528 L31.3921715,20.3945528 L32.8362439,20.670609 C33.0862153,20.7197929 33.3149713,20.8439981 33.4916182,21.0264503 L33.4916182,21.0264503 L49.4776119,37.4908915 L42.4275188,40.6025082 C41.6854038,40.7780353 40.9095562,40.5466586 40.3714425,39.9929504 L40.3714425,39.9929504 L27.8791722,27.1268146 C26.7820627,26.1502457 26.6648021,25.7736603 26.7258419,25.4050534 L26.7258419,25.4050534 L26.8174016,24.8353882 C26.8815843,24.4334327 27.067622,24.0604748 27.3506964,23.7662686 L27.3506964,23.7662686 Z M33.4693408,6.79104478 C34.1209372,6.79104478 34.7660662,6.81529927 35.4063446,6.86219128 C35.8512305,6.89663159 36.1848888,7.28375726 36.153336,7.72888505 C36.1155397,8.17209175 35.7306034,8.5039047 35.2866966,8.47592334 C34.6819336,8.43128342 34.0757486,8.40863096 33.4693408,8.40801077 C20.2099429,8.40801077 9.41835573,19.1771689 9.3781712,32.42655 C11.0878735,32.7221094 12.4767226,34.1874959 12.601061,36.0276964 C12.673643,37.0649186 12.3327595,38.0883994 11.6543442,38.8701522 C10.9185099,39.7250772 9.8510823,40.2142274 8.72989711,40.2103078 C6.69152287,40.2066954 5.00236586,38.6118835 4.86035434,36.5568683 C4.78777228,35.5196462 5.12865586,34.4961653 5.80707113,33.7144125 C6.32441271,33.1126109 7.00766513,32.690038 7.76097282,32.4947466 C7.76119403,18.3232462 19.2942891,6.79104478 33.4693408,6.79104478 Z M8.72989711,34.0092894 C8.07741295,34.006706 7.45632313,34.2921259 7.02937329,34.7907776 C6.63220614,35.2495025 6.4376753,35.8376533 6.47820256,36.4454637 L6.47820256,36.447102 C6.53666483,37.3695118 7.14102055,38.1647112 8.00778298,38.4596939 C8.87454541,38.7546766 9.83175896,38.4909214 10.4304209,37.7921488 C11.0096935,37.1171528 11.1466197,36.1628982 10.7809294,35.3494146 C10.4152392,34.5359309 9.61400304,34.0124177 8.72989711,34.0092894 Z M43.5298446,7.46060618 L43.37422,7.46552109 C42.1316452,7.55215346 41.1931036,8.63919817 41.276529,9.89512451 C41.3699452,11.1472443 42.4403521,12.0918804 43.680606,12.016727 C44.2676618,11.9784502 44.8040209,11.7150501 45.1969605,11.2764031 C45.0868893,11.0450024 45.0901731,10.7674522 45.2269581,10.5305258 C45.3441086,10.3276084 45.5360246,10.1946053 45.7479209,10.146391 C45.8288026,9.69982709 45.7765145,9.22908795 45.5827027,8.7979131 C45.2168849,7.98407456 44.4143282,7.46125976 43.5298446,7.46060618 Z" id="形状结合"></path>
                </g>
            </g>
        </g>
    </g>
</svg>