<?xml version="1.0" standalone="no"?><!DOCTYPE svg PUBLIC "-//W3C//DTD SVG 1.1//EN" "http://www.w3.org/Graphics/SVG/1.1/DTD/svg11.dtd"><svg t="1597891861047" class="icon" viewBox="0 0 1024 1024" version="1.1" xmlns="http://www.w3.org/2000/svg" p-id="2688" xmlns:xlink="http://www.w3.org/1999/xlink" width="200" height="200"><defs><style type="text/css"></style></defs><path d="M346.37592781 459.35765281l-109.95228843-40.63454062a29.87833875 29.87833875 0 0 0-20.91483751 56.17127719l109.95228844 41.23210781a29.87833875 29.87833875 0 0 0 20.9148375-56.17127719z" fill="#ffffff" p-id="2689"></path><path d="M983.38211844 213.16013844h-3.58540125a28.68320531 28.68320531 0 0 0-4.78053375-5.37810094h-4.1829675L520.26786125 33.89010406a29.87833875 29.87833875 0 0 0-20.9148375 0L51.77550406 203.00150281H47.59253656A28.68320531 28.68320531 0 0 0 40.421735 213.16013844H36.83633469a29.2807725 29.2807725 0 0 0-4.78053469 17.92700343v557.52980813a29.87833875 29.87833875 0 0 0 19.12213687 28.08563906l448.17508688 173.29436719a29.87833875 29.87833875 0 0 0 21.51240469 0l448.17508687-171.50166656a29.87833875 29.87833875 0 0 0 19.12213688-28.08563907V231.08714187a29.2807725 29.2807725 0 0 0-4.78053375-17.92700343zM510.10922656 93.64678156l362.72303719 137.44036031L510.10922656 366.13723531 147.38618938 231.08714187zM91.81247844 272.91681687l388.41840844 145.80629532v497.77312968L91.81247844 767.7021125z m836.59349531 494.18772938l-388.41840844 149.39169563V418.72311219L928.40597375 272.91681687z" fill="#ffffff" p-id="2690"></path></svg>