<?xml version="1.0" standalone="no"?><!DOCTYPE svg PUBLIC "-//W3C//DTD SVG 1.1//EN" "http://www.w3.org/Graphics/SVG/1.1/DTD/svg11.dtd"><svg t="1605146191582" class="icon" viewBox="0 0 1024 1024" version="1.1" xmlns="http://www.w3.org/2000/svg" p-id="7845" xmlns:xlink="http://www.w3.org/1999/xlink" width="200" height="200"><defs><style type="text/css"></style></defs><path d="M561.1 708.454V413.798c0-47.155 49.102-47.155 49.102 0v294.708c0.05 34.099-49.101 38.656-49.101-0.052z m-147.302 0V413.798c0-47.155 49.101-47.155 49.101 0v294.708c0 38.656-49.1 34.099-49.1-0.052z m442.01-442.01H708.454v-49.151c0-71.731-22.988-98.253-98.252-98.253H413.798c-74.035 0-98.252 24.166-98.252 98.253v49.152H168.192c-53.094 0-53.094 49.1 0 49.1h687.616c53.094 0 53.094-49.1 0-49.1z m-491.162-49.151c0-47.667 2.97-49.101 49.101-49.101h196.455c46.08 0 49.1 1.126 49.1 49.1v49.153H364.646v-49.152z m343.91 687.616h-393.01c-70.964 0-98.253-27.239-98.253-98.253V413.798c0-49.612 49.1-49.612 49.1 0v392.91c0 47.718-0.102 49.151 49.101 49.151h392.91c47.718 0 49.1 0.154 49.1-49.152V413.798c0-48.486 49.1-48.486 49.1 0v392.91c0.103 69.426-23.96 98.2-98.047 98.2z" p-id="7846"></path></svg>