<svg t="1600240471214" class="icon" viewBox="0 0 1024 1024" version="1.1" xmlns="http://www.w3.org/2000/svg" p-id="14905" width="200" height="200"><path d="M319.5 319.5L512 512l192.5-192.5H576V64H448v255.5z" fill="#1607f4" p-id="14906"></path><path d="M832 192H704.6v64H832c35.3 0 64 28.7 64 64v384c0 35.3-28.7 64-64 64H192c-35.3 0-64-28.7-64-64V320c0-35.3 28.7-64 64-64h127.8v-64H192c-70.7 0-128 57.3-128 128v384c0 70.7 57.3 128 128 128h256v64H255.8v64h512v-64H576v-64h256c70.7 0 128-57.3 128-128V320c0-70.7-57.3-128-128-128z" fill="#1607f4" p-id="14907"></path></svg>