<?xml version="1.0" standalone="no"?><!DOCTYPE svg PUBLIC "-//W3C//DTD SVG 1.1//EN" "http://www.w3.org/Graphics/SVG/1.1/DTD/svg11.dtd"><svg t="1601174552727" class="icon" viewBox="0 0 1024 1024" version="1.1" xmlns="http://www.w3.org/2000/svg" p-id="5220" xmlns:xlink="http://www.w3.org/1999/xlink" width="200" height="200"><defs><style type="text/css"></style></defs><path d="M725.3 576c-106 0-192 86-192 192s86 192 192 192 192-86 192-192-85.9-192-192-192z m0 341.3C642.9 917.3 576 850.5 576 768c0-82.5 66.9-149.3 149.3-149.3S874.7 685.5 874.7 768c0 82.5-66.9 149.3-149.4 149.3z" fill="#000000" p-id="5221"></path><path d="M874.7 64H149.3c-23.5 0-42.7 19.2-42.7 42.7v810.7c0 23.5 19.2 42.7 42.7 42.7H480c11.8 0 21.3-9.6 21.3-21.3 0-11.8-9.6-21.3-21.3-21.3H170.7c-11.7 0-21.3-9.6-21.3-21.3V128c0-11.7 9.6-21.3 21.3-21.3h682.7c11.7 0 21.3 9.6 21.3 21.3v384c0 11.8 9.6 21.3 21.3 21.3s21.3-9.6 21.3-21.3V106.7c0-23.5-19.2-42.7-42.6-42.7z" fill="#000000" p-id="5222"></path><path d="M746.7 780.5V704c0-11.7-9.6-21.3-21.3-21.3-11.7 0-21.3 9.6-21.3 21.3v85.3c0 0.2 0.1 0.3 0.1 0.5 0.1 2.6 0.5 5.2 1.6 7.6 0.6 1.5 1.7 2.7 2.7 4 0.7 0.9 1.1 2 1.9 2.9l38.3 38.3c8.3 8.3 21.9 8.3 30.2 0s8.3-21.9 0-30.2l-32.2-31.9zM298.7 320h426.7c11.7 0 21.3-9.6 21.3-21.3 0-11.7-9.6-21.3-21.3-21.3H298.7c-11.7 0-21.3 9.6-21.3 21.3-0.1 11.7 9.5 21.3 21.3 21.3zM746.7 448c0-11.7-9.6-21.3-21.3-21.3H298.7c-11.7 0-21.3 9.6-21.3 21.3s9.6 21.3 21.3 21.3h426.7c11.7 0 21.3-9.6 21.3-21.3zM298.7 576c-11.7 0-21.3 9.6-21.3 21.3 0 11.7 9.6 21.3 21.3 21.3h170.7c11.7 0 21.3-9.6 21.3-21.3 0-11.7-9.6-21.3-21.3-21.3H298.7z" fill="#000000" p-id="5223"></path></svg>