<?xml version="1.0" standalone="no"?><!DOCTYPE svg PUBLIC "-//W3C//DTD SVG 1.1//EN" "http://www.w3.org/Graphics/SVG/1.1/DTD/svg11.dtd"><svg t="1602743016976" class="icon" viewBox="0 0 1024 1024" version="1.1" xmlns="http://www.w3.org/2000/svg" p-id="1316" xmlns:xlink="http://www.w3.org/1999/xlink" width="200" height="200"><defs><style type="text/css"></style></defs><path d="M62 319.143V190.57A128.571 128.571 0 0 1 190.571 62h128.572v64.286H190.57a64.286 64.286 0 0 0-64.285 64.285v128.572H62z m0 450h64.286v64.286a64.286 64.286 0 0 0 64.285 64.285h128.572V962H190.57A128.571 128.571 0 0 1 62 833.429v-64.286z m900-450h-64.286V190.57a64.286 64.286 0 0 0-64.285-64.285h-64.286V62h64.286A128.571 128.571 0 0 1 962 190.571v128.572z m0 450v64.286A128.571 128.571 0 0 1 833.429 962h-64.286v-64.286h64.286a64.286 64.286 0 0 0 64.285-64.285v-64.286H962z m-436.436-26.807c83.443 0 187.457-162.579 187.457-290.057a187.393 187.393 0 0 0-374.785 0c0 127.478 103.95 290.057 187.328 290.057z m0 64.285c-138.985 0-251.678-215.357-251.678-354.342a251.679 251.679 0 0 1 503.357 0c0 139.05-112.629 354.342-251.679 354.342z" p-id="1317"></path><path d="M415.057 557.707a32.143 32.143 0 0 1 45.386-45.578c25.393 25.328 48.728 36.9 70.328 36.9 21.536 0 44.872-11.572 70.329-36.9a32.143 32.143 0 1 1 45.321 45.642c-36.578 36.322-75.214 55.543-115.714 55.543-40.371 0-79.071-19.221-115.65-55.607z" p-id="1318"></path></svg>