<?xml version="1.0" standalone="no"?><!DOCTYPE svg PUBLIC "-//W3C//DTD SVG 1.1//EN" "http://www.w3.org/Graphics/SVG/1.1/DTD/svg11.dtd"><svg t="1597890711236" class="icon" viewBox="0 0 1024 1024" version="1.1" xmlns="http://www.w3.org/2000/svg" p-id="1244" xmlns:xlink="http://www.w3.org/1999/xlink" width="200" height="200"><defs><style type="text/css"></style></defs><path d="M62 319.14285752V190.57142832a128.57142832 128.57142832 0 0 1 128.57142832-128.57142832h128.5714292v64.28571416H190.57142832a64.28571416 64.28571416 0 0 0-64.28571416 64.28571417v128.57142919H62z m0 450h64.28571416v64.28571416a64.28571416 64.28571416 0 0 0 64.28571417 64.28571416h128.57142919v64.28571416H190.57142832a128.57142832 128.57142832 0 0 1-128.57142832-128.57142832v-64.28571416z m900-450h-64.28571416V190.57142832a64.28571416 64.28571416 0 0 0-64.28571417-64.28571416h-64.28571415V62h64.28571416a128.57142832 128.57142832 0 0 1 128.57142832 128.57142832v128.5714292z m0 450v64.28571416a128.57142832 128.57142832 0 0 1-128.57142832 128.57142832h-64.28571416v-64.28571416h64.28571416a64.28571416 64.28571416 0 0 0 64.28571416-64.28571416v-64.28571416h64.28571416zM525.56428584 742.33571416c83.44285752 0 187.45714248-162.57857167 187.45714248-290.05714248a187.39285752 187.39285752 0 0 0-374.78571416-1e-8c0 127.47857167 103.95 290.05714248 187.32857168 290.05714249z m0 64.28571416c-138.98571416 0-251.67857168-215.35714248-251.67857168-354.34285665a251.67857168 251.67857168 0 0 1 503.35714336 1e-8c0 139.05-112.62857168 354.34285752-251.67857168 354.34285664z" fill="#ffffff" p-id="1245"></path><path d="M415.05714248 557.70714248a32.14285752 32.14285752 0 0 1 45.38571504-45.5785708c25.39285752 25.32857168 48.72857168 36.9 70.3285708 36.9 21.53571416 0 44.87142832-11.57142832 70.32857168-36.9a32.14285752 32.14285752 0 1 1 45.32142832 45.64285664c-36.57857167 36.32142832-75.21428584 55.54285752-115.71428584 55.54285752-40.37142832 0-79.07142832-19.22142832-115.65-55.60714336z" fill="#ffffff" p-id="1246"></path></svg>