<?xml version="1.0" standalone="no"?><!DOCTYPE svg PUBLIC "-//W3C//DTD SVG 1.1//EN" "http://www.w3.org/Graphics/SVG/1.1/DTD/svg11.dtd"><svg t="1597891787807" class="icon" viewBox="0 0 1024 1024" version="1.1" xmlns="http://www.w3.org/2000/svg" p-id="1608" xmlns:xlink="http://www.w3.org/1999/xlink" width="200" height="200"><defs><style type="text/css"></style></defs><path d="M111.50222222 839.68h800.99555556c21.84533333 0 36.40888889 14.56355555 36.40888889 36.40888889s-14.56355555 36.40888889-36.40888889 36.40888889H111.50222222c-21.84533333 0-36.40888889-14.56355555-36.40888889-36.40888889s14.56355555-36.40888889 36.40888889-36.40888889z m120.14933333-105.58577778c-3.64088889 21.84533333-21.84533333 36.40888889-47.33155555 32.768-21.84533333-3.64088889-40.04977778-21.84533333-36.40888889-40.04977777L220.72888889 202.52444445c10.92266667-54.61333333 61.89511111-91.02222222 123.79022222-91.02222223h152.91733334c61.89511111 0 112.86755555 36.40888889 123.79022222 91.02222223l72.81777778 520.6471111c3.64088889 18.20444445-14.56355555 36.40888889-36.4088889 40.04977778-21.84533333 3.64088889-43.69066667-10.92266667-47.33155555-32.768l-72.81777778-520.64711111c-3.64088889-14.56355555-18.20444445-25.48622222-40.04977777-25.48622222H344.51911111c-21.84533333 0-36.40888889 10.92266667-40.04977778 29.12711111l-72.81777778 520.64711111z m473.31555556-404.13866667c-21.84533333 0-36.40888889-14.56355555-36.40888889-36.40888888s14.56355555-36.40888889 36.40888889-36.40888889c54.61333333 0 98.304 36.40888889 109.22666667 91.02222222L876.08888889 723.17155555c3.64088889 18.20444445-10.92266667 40.04977778-29.12711111 40.04977778-18.20444445 3.64088889-40.04977778-10.92266667-40.04977778-29.12711111l-61.89511111-375.01155555c-7.28177778-18.20444445-21.84533333-29.12711111-40.04977778-29.12711112z" fill="#ffffff" p-id="1609"></path><path d="M402.77333333 329.95555555h36.40888889c21.84533333 0 36.40888889 14.56355555 36.40888889 36.4088889s-14.56355555 36.40888889-36.40888889 36.40888888h-36.40888889c-21.84533333 0-36.40888889-14.56355555-36.40888888-36.40888888s14.56355555-36.40888889 36.40888888-36.4088889z m-18.20444444 145.63555556h72.81777778c21.84533333 0 36.40888889 14.56355555 36.40888888 36.40888889s-14.56355555 36.40888889-36.40888888 36.40888889h-72.81777778c-21.84533333 0-36.40888889-14.56355555-36.40888889-36.40888889s14.56355555-36.40888889 36.40888889-36.40888889z m-18.20444444 145.63555556h109.22666666c21.84533333 0 36.40888889 14.56355555 36.40888889 36.40888888s-14.56355555 36.40888889-36.40888889 36.4088889h-109.22666666c-21.84533333 0-36.40888889-14.56355555-36.4088889-36.4088889s14.56355555-36.40888889 36.4088889-36.40888888z" fill="#ffffff" p-id="1610"></path></svg>