<?xml version="1.0" standalone="no"?><!DOCTYPE svg PUBLIC "-//W3C//DTD SVG 1.1//EN" "http://www.w3.org/Graphics/SVG/1.1/DTD/svg11.dtd"><svg t="1597735609730" class="icon" viewBox="0 0 1102 1024" version="1.1" xmlns="http://www.w3.org/2000/svg" p-id="970" xmlns:xlink="http://www.w3.org/1999/xlink" width="215.234375" height="200"><defs><style type="text/css"></style></defs><path d="M551.04551 0C246.710947 0 0 252.457565 0 564.03444c0 184.521525 86.592866 348.260763 220.418204 451.148832l0.078721-0.157442a38.415744 38.415744 0 0 0 23.852398 8.344404 39.202952 39.202952 0 0 0 38.730628-39.675277 39.832718 39.832718 0 0 0-19.050431-34.164822A480.432964 480.432964 0 0 1 159.01599 836.01476l47.547356-28.103321a35.739237 35.739237 0 0 0 12.595326-48.177122 34.00738 34.00738 0 0 0-47.075031-12.831488l-47.547356 28.0246a487.517835 487.517835 0 0 1-45.815498-175.704797h54.632227c19.050431 0 34.479705-15.744157 34.479704-35.188192a34.794588 34.794588 0 0 0-34.479704-35.266912h-54.632227a492.792128 492.792128 0 0 1 46.051661-176.334564l47.311193 28.024601c16.531365 9.761378 37.628536 3.936039 47.075031-12.831489a35.739237 35.739237 0 0 0-12.595326-48.177122l-47.232473-27.867158a482.400984 482.400984 0 0 1 125.480935-128.472325l27.237392 48.413284c9.446494 16.846248 30.543665 22.592866 46.99631 12.831489a35.739237 35.739237 0 0 0 12.595326-48.098401l-27.316113-48.492005a461.067651 461.067651 0 0 1 172.241083-47.153752v55.97048c0 19.522755 15.350554 35.266913 34.400984 35.266912s34.479705-15.744157 34.479704-35.266912v-55.891759a463.429274 463.429274 0 0 1 171.611317 46.838868l-27.394834 48.728168a35.739237 35.739237 0 0 0 12.595326 48.098401c16.452645 9.761378 37.549815 3.936039 46.99631-12.831489l27.473554-48.728167a480.354244 480.354244 0 0 1 125.95326 128.787208l-47.311193 27.867158a35.739237 35.739237 0 0 0-12.595326 48.177122c9.446494 16.846248 30.543665 22.592866 47.07503 12.831489l47.311194-27.94588c25.584256 53.845018 41.722017 113.436654 46.05166 176.255843h-54.632226c-19.050431 0-34.479705 15.744157-34.479705 35.266912 0 19.444034 15.429274 35.188192 34.479705 35.188192h54.632226a491.296433 491.296433 0 0 1-45.815498 175.704797l-47.547356-28.0246a34.00738 34.00738 0 0 0-47.07503 12.831488 35.739237 35.739237 0 0 0 12.595326 48.177122l47.547355 28.103321a480.98401 480.98401 0 0 1-107.847478 115.719557l0.236162 0.393604a39.832718 39.832718 0 0 0-15.271833 31.567036c0 21.9631 17.318573 39.675277 38.730628 39.675277a38.258303 38.258303 0 0 0 27.709717-11.886839A567.576876 567.576876 0 0 0 1102.091021 564.03444C1102.091021 252.457565 855.380074 0 551.04551 0z" fill="#ffffff" p-id="971"></path><path d="M720.688807 384.157442L585.367774 492.477245A75.257073 75.257073 0 0 0 551.04551 484.290283a78.405904 78.405904 0 0 0-77.461254 79.271833c0 43.847478 34.637146 79.350554 77.461254 79.350553s77.461255-35.503075 77.461255-79.350553a76.04428 76.04428 0 0 0-1.338253-14.95695l135.872078-108.870849a35.817958 35.817958 0 0 0 5.98278-49.436654 33.849938 33.849938 0 0 0-48.334563-6.061501z" fill="#ffffff" p-id="972"></path></svg>