<?xml version="1.0" standalone="no"?><!DOCTYPE svg PUBLIC "-//W3C//DTD SVG 1.1//EN" "http://www.w3.org/Graphics/SVG/1.1/DTD/svg11.dtd"><svg t="1599121046664" class="icon" viewBox="0 0 1024 1024" version="1.1" xmlns="http://www.w3.org/2000/svg" p-id="3047" xmlns:xlink="http://www.w3.org/1999/xlink" width="200" height="200"><defs><style type="text/css"></style></defs><path d="M851.42186667 837.08586667h-54.61333334c0-86.97173333-34.4064-168.20906667-96.80213333-228.82986667a317.04405333 317.04405333 0 0 0-222.0032-89.97546667c-85.33333333 0-165.4784 33.31413333-225.6896 93.66186667-60.07466667 60.2112-93.11573333 140.0832-93.11573333 225.14346667h-54.61333334c0-99.5328 38.77546667-193.19466667 109.09013334-263.64586667 70.58773333-70.72426667 164.38613333-109.63626667 264.32853333-109.63626667 97.62133333 0 189.91786667 37.41013333 259.95946667 105.40373334 73.18186667 70.8608 113.4592 166.02453333 113.4592 267.8784z" p-id="3048"></path><path d="M478.0032 518.28053333c-130.2528 0-236.20266667-104.8576-236.20266667-233.74506666s105.94986667-233.74506667 236.20266667-233.74506667 236.20266667 104.8576 236.20266667 233.74506667-105.94986667 233.74506667-236.20266667 233.74506666z m0-412.74026666c-100.07893333 0-181.58933333 80.2816-181.58933333 179.13173333s81.37386667 179.13173333 181.58933333 179.13173333 181.58933333-80.2816 181.58933333-179.13173333-81.5104-179.13173333-181.58933333-179.13173333zM478.0032 915.72906667c-6.9632 0-13.9264-2.73066667-19.2512-8.05546667l-78.37013333-78.37013333c-7.3728-7.3728-9.8304-18.15893333-6.5536-27.98933334l78.37013333-235.24693333a27.30666667 27.30666667 0 0 1 25.94133333-18.70506667 27.30666667 27.30666667 0 0 1 25.94133334 18.70506667l78.37013333 235.24693333c3.2768 9.8304 0.68266667 20.61653333-6.5536 27.98933334l-78.37013333 78.37013333c-5.46133333 5.46133333-12.56106667 8.05546667-19.52426667 8.05546667z m-47.104-113.0496l47.104 47.104 47.104-47.104-47.104-141.44853334-47.104 141.44853334z" p-id="3049"></path></svg>