<?xml version="1.0" standalone="no"?><!DOCTYPE svg PUBLIC "-//W3C//DTD SVG 1.1//EN" "http://www.w3.org/Graphics/SVG/1.1/DTD/svg11.dtd"><svg t="1600073405473" class="icon" viewBox="0 0 1024 1024" version="1.1" xmlns="http://www.w3.org/2000/svg" p-id="1720" xmlns:xlink="http://www.w3.org/1999/xlink" width="200" height="200"><defs><style type="text/css"></style></defs><path d="M591.16820777 723.72892677h-158.33641554c-15.21993436 0-27.61681602-12.39688167-27.61681603-27.61681732s12.39688167-27.61681602 27.61681603-27.61681602h158.33641554c15.21993436 0 27.61681602 12.39688167 27.61681603 27.61681602s-12.39688167 27.61681602-27.61681603 27.61681732z" p-id="1721"></path><path d="M981.48588027 723.72892677h-83.46415632c-15.21993436 0-27.61681602-12.39688167-27.61681733-27.61681732s12.39688167-27.61681602 27.61681733-27.61681602H953.86906294V611.42053925c0-31.91276589-21.60248701-60.0205472-52.41058066-68.24422195-0.61370693-0.12274164-1.22741388-0.36822364-1.84112082-0.61370694l-193.44045644-66.5258428c-4.1732082-1.47289717-7.97819148-3.80498326-11.04672615-6.9962596-0.2454833-0.2454833-28.23052295-28.96697155-76.59063837-57.32023744-64.07101375-37.31338797-131.94701207-56.33830558-201.66412991-56.33830559-173.31086659 0-270.39931846 97.08845316-322.56441713 149.25355053-15.58815799 15.71089965-24.18005771 36.57693937-24.1800564 58.67039298v105.18938499h55.84733899c15.21993436 0 27.61681602 12.39688167 27.61681733 27.61681602s-12.39688167 27.61681602-27.61681733 27.61681732h-83.46415632c-15.21993436 0-27.61681602-12.39688167-27.61681603-27.61681732V563.30590844c0-36.82242138 14.36074413-71.55823994 40.38192265-97.57941845 25.53021194-25.53021194 68.24422196-68.24422196 128.3875108-103.22552252 70.82179136-41.24111287 149.25355054-62.10715131 233.20867344-62.1071526 79.16820777 0 159.19560446 22.46167724 231.24480969 64.93020399 42.59126838 25.03924665 70.944533 50.32397657 81.8685175 60.75699708l186.5669385 64.1937554c54.49718477 14.97445106 92.42427967 64.68472069 92.42427838 121.26850957v84.69157019c0.12274164 15.09719271-12.27414002 27.49407568-27.49407439 27.49407567z" p-id="1722"></path><path d="M279.40503479 821.92205087C210.05614061 821.92205087 153.59509338 765.46100494 153.59509338 696.11210945s56.46104723-125.80994141 125.80994141-125.80994142S405.2149762 626.76321526 405.2149762 696.11210945s-56.46104723 125.80994141-125.80994141 125.80994142z m0-196.38624948c-38.90902547 0-70.57630935 31.66728259-70.57630935 70.57630806s31.66728259 70.57630935 70.57630935 70.57630936S349.98134286 735.02113622 349.98134286 696.11210945s-31.66728259-70.57630935-70.57630807-70.57630806zM744.59496521 822.5357578C675.24607102 822.5357578 618.7850238 766.07471187 618.7850238 696.72581638S675.24607102 570.91587498 744.59496521 570.91587498 870.40490662 627.37692221 870.40490662 696.72581638 813.94385939 822.5357578 744.59496521 822.5357578z m0-196.38624948c-38.90902547 0-70.57630935 31.66728259-70.57630807 70.57630806s31.66728259 70.57630935 70.57630807 70.57630936 70.57630935-31.66728259 70.57630935-70.57630936-31.66728259-70.57630935-70.57630935-70.57630806z" p-id="1723"></path></svg>