<?xml version="1.0" standalone="no"?><!DOCTYPE svg PUBLIC "-//W3C//DTD SVG 1.1//EN" "http://www.w3.org/Graphics/SVG/1.1/DTD/svg11.dtd"><svg t="1600152139385" class="icon" viewBox="0 0 1024 1024" version="1.1" xmlns="http://www.w3.org/2000/svg" p-id="1462" xmlns:xlink="http://www.w3.org/1999/xlink" width="200" height="200"><defs><style type="text/css"></style></defs><path d="M261.68888853 625.77777813h45.51111147c9.10222187 0 15.92888853-4.55111147 20.48-13.65333333l47.78666667-95.57333333 47.78666666 95.57333333c6.82666667 15.92888853 31.85777813 15.92888853 40.96 0L580.26666667 380.01777813l116.05333333 232.10666667c4.55111147 6.82666667 11.37777813 13.65333333 20.48 13.65333333h45.51111147c13.65333333 0 22.7555552-9.10222187 22.7555552-22.75555626s-9.10222187-22.7555552-22.7555552-22.7555552h-31.85777814l-129.70666666-259.41333334c-6.82666667-15.92888853-31.85777813-15.92888853-40.96 0L443.73333333 552.96l-47.78666666-95.57333333c-6.82666667-15.92888853-31.85777813-15.92888853-40.96 0L293.54666667 580.26666667H261.68888853c-13.65333333 0-22.7555552 9.10222187-22.7555552 22.7555552s9.10222187 22.7555552 22.7555552 22.75555626z" p-id="1463"></path><path d="M898.8444448 170.66666667H125.1555552c-13.65333333 0-22.7555552 9.10222187-22.7555552 22.7555552v568.8888896c0 13.65333333 9.10222187 22.7555552 22.7555552 22.7555552h364.0888896v68.26666666H261.68888853c-11.37777813 0-22.7555552 11.37777813-22.7555552 22.7555552s11.37777813 22.7555552 22.7555552 22.75555627h500.62222294c11.37777813 0 22.7555552-11.37777813 22.7555552-22.75555627s-11.37777813-22.7555552-22.7555552-22.7555552H534.7555552v-68.26666666h364.0888896c13.65333333 0 22.7555552-9.10222187 22.7555552-22.7555552V193.42222187c0-13.65333333-9.10222187-22.7555552-22.7555552-22.7555552z m-22.75555627 568.88888853H147.91111147V216.17777813h728.17777706v523.37777707z" p-id="1464"></path></svg>