<?xml version="1.0" standalone="no"?><!DOCTYPE svg PUBLIC "-//W3C//DTD SVG 1.1//EN" "http://www.w3.org/Graphics/SVG/1.1/DTD/svg11.dtd"><svg t="1599121022405" class="icon" viewBox="0 0 1024 1024" version="1.1" xmlns="http://www.w3.org/2000/svg" p-id="2205" xmlns:xlink="http://www.w3.org/1999/xlink" width="200" height="200"><defs><style type="text/css"></style></defs><path d="M780.74127354 777.82742334a25.64739932 25.64739932 0 0 1-25.22244287-25.27243769 23.49761748 23.49761748 0 0 1 8.07418125-18.42313272l0.49994912-0.4499543 0.57494179-0.37496162a25.94736914 25.94736914 0 0 0 3.27466846-2.49974648l0.39995947-0.3749625 0.4499543-0.3249668a271.82244023 271.82244023 0 0 0 45.22041475-39.4959955 301.3944416 301.3944416 0 0 0 37.74617314-50.81984737 258.52378886 258.52378886 0 0 0 25.3974252-59.04401396 241.50051474 241.50051474 0 0 0-25.54740967-190.43069239 306.59391474 306.59391474 0 0 0-85.16636543-91.56571612 25.2724377 25.2724377 0 0 1 14.29855049-45.89534618 21.77279209 21.77279209 0 0 1 14.9984789 5.47444423l0.5749418 0.47495215 0.59993964 0.42495733a354.21408633 354.21408633 0 0 1 55.99432266 49.17001465 327.06683877 327.06683877 0 0 1 44.49548848 60.74384062 316.01795888 316.01795888 0 0 1 29.04705527 69.9929042 281.47146153 281.47146153 0 0 1 10.42394239 76.31726221 284.97110713 284.97110713 0 0 1-10.42394239 77.19217295 313.34323008 313.34323008 0 0 1-29.44701474 70.26787617 337.79075185 337.79075185 0 0 1-101.61469776 110.28881777l-0.29996894 0.19997929-0.29996982 0.19998018a21.97277227 21.97277227 0 0 1-13.94858585 4.37455635z m-46.87024834-138.03600498a24.82248339 24.82248339 0 0 1-18.79809346-8.02418643 26.59730362 26.59730362 0 0 1-7.87420195-19.5230206 28.24713633 28.24713633 0 0 1 1.92480468-9.99898594l2.37475899-6.34935674 0.27497285-0.49994912c1.69982754-3.02469346 3.54964042-5.99939209 5.54943691-8.84910234 4.0245917-5.74941709 7.97419161-11.77380615 11.77380615-17.87318789a107.48910146 107.48910146 0 0 0 10.29895576-22.49771924 98.19004482 98.19004482 0 0 0 4.32456153-30.77187979 94.99036904 94.99036904 0 0 0-4.32456153-29.99695869 119.98783477 119.98783477 0 0 0-10.1989661-22.74769424 293.97019482 293.97019482 0 0 0-11.87379581-18.49812451 66.31827627 66.31827627 0 0 1-8.14917392-15.5734207V428.06288516a24.79748555 24.79748555 0 0 1-1.74982237-9.69901612 26.64729844 26.64729844 0 0 1 7.87420195-19.5230206 24.82248339 24.82248339 0 0 1 18.79809346-8.02418643 17.67320771 17.67320771 0 0 1 12.77370528 4.52454082 109.13893418 109.13893418 0 0 1 13.22365957 15.22345694 244.2752332 244.2752332 0 0 1 27.34722685 47.7951539 146.88510732 146.88510732 0 0 1 9.82400362 56.94422607 152.98448906 152.98448906 0 0 1-10.29895576 57.49417091 201.12960761 201.12960761 0 0 1-26.72229024 47.02023281l-0.14998447 0.17498232a106.48920323 106.48920323 0 0 1-13.24865742 15.24845391 17.49822627 17.49822627 0 0 1-12.74870743 4.52454081z m0-7.49923945a17.27324912 17.27324912 0 0 1-13.37364405-5.69942227 19.2730456 19.2730456 0 0 1-5.74941709-14.29855049 20.82288867 20.82288867 0 0 1 1.42485557-7.49923945l2.17477969-5.82440977a99.98986201 99.98986201 0 0 1 5.14947831-8.19916875c4.09958438-5.87440459 8.14917393-11.9987833 11.99878331-18.24814951a115.73826504 115.73826504 0 0 0 11.04887988-24.04756231 105.71428213 105.71428213 0 0 0 4.69952314-33.14663876 102.71458565 102.71458565 0 0 0-4.69952314-32.29672588 125.71225401 125.71225401 0 0 0-10.87389756-24.17254893c-3.8996042-6.62432872-7.99918857-13.0236794-12.19876347-18.99807363a59.44397344 59.44397344 0 0 1-7.22426748-13.82359834l-0.17498233-0.4499543-0.1999793-0.47495214a17.32324395 17.32324395 0 0 1-1.12488662-6.72431836 19.2730456 19.2730456 0 0 1 5.74941709-14.29855049 17.27324912 17.27324912 0 0 1 13.37364405-5.69942227 9.99898594 9.99898594 0 0 1 7.49924032 2.49974737 104.81437266 104.81437266 0 0 1 12.29875226 14.17356299 237.47592217 237.47592217 0 0 1 26.49731396 46.29530566 139.26088037 139.26088037 0 0 1 9.24906182 54.01952314 144.98530049 144.98530049 0 0 1-9.77400879 54.66945674 192.60547207 192.60547207 0 0 1-25.69739415 45.27041045v0.17498232l-0.14998534 0.1999793a99.98986201 99.98986201 0 0 1-12.3237501 14.14856601 9.99898594 9.99898594 0 0 1-7.49923946 2.49974649z m0 5.37445458a22.49771924 22.49771924 0 0 1-17.22325343-7.34925497 24.5725084 24.5725084 0 0 1-7.2742623-18.02317237 25.8473795 25.8473795 0 0 1 1.79981719-9.37404932l2.32476416-6.17437441 0.27497197-0.52494609a96.26524013 96.26524013 0 0 1 5.32446065-8.47414161c4.07458652-5.82440977 8.04918427-11.8737958 11.84879883-18.02317235a109.36391133 109.36391133 0 0 0 10.49893505-22.92267569 100.23983701 100.23983701 0 0 0 4.44954903-31.44681211 97.86507714 97.86507714 0 0 0-4.42455117-30.59689746 121.86264463 121.86264463 0 0 0-10.3989463-23.14765283c-3.84960938-6.49934121-7.87420195-12.77370528-11.97378544-18.64810987a65.26838232 65.26838232 0 0 1-7.89919893-14.99847891v-0.64993446a22.49771924 22.49771924 0 0 1-1.57484092-8.84910235 24.5725084 24.5725084 0 0 1 7.27426231-18.02317324 22.49771924 22.49771924 0 0 1 17.2232543-7.3492541 15.47343106 15.47343106 0 0 1 11.27385703 3.92460204 109.46390185 109.46390185 0 0 1 12.97368457 14.99847891 243.17534443 243.17534443 0 0 1 27.09725273 47.37019747 144.98530049 144.98530049 0 0 1 9.64902129 56.0943123 150.2847624 150.2847624 0 0 1-10.14897041 56.69425195 198.87983613 198.87983613 0 0 1-26.39732432 46.49528585l-0.19997929 0.27497196a107.71407862 107.71407862 0 0 1-12.97368457 14.99847979 15.37344141 15.37344141 0 0 1-11.27385703 3.94959903zM541.81549795 961.90875898c-2.49974648 0-4.99949297 0-7.49923946-0.24997411a104.78937568 104.78937568 0 0 1-59.1440036-31.74678194 6945.82077128 6945.82077128 0 0 0-91.29074414-81.2417625c-32.32172285-28.49711045-62.49366387-54.66945674-89.71590411-78.01708975a13608.52024747 13608.52024747 0 0 0-88.191058-73.66753125c-2.74972148 0-5.52443994 0.1999793-8.24916358 0.19998018a174.03235488 174.03235488 0 0 1-17.49822627 0.87491074h-14.42353799a77.74211778 77.74211778 0 0 1-56.24429677-21.69780029 72.4926498 72.4926498 0 0 1-22.64770372-53.06961885v-215.12818829a80.34185391 80.34185391 0 0 1 22.49771836-58.04411484 75.81731309 75.81731309 0 0 1 56.36928516-23.52261532H204.34971289a14499.72988857 14499.72988857 0 0 1 134.41137188-112.76356729c18.17315771-15.34844356 36.22132793-30.42191513 53.61956367-44.77046045s33.42161162-27.62219971 47.34520049-39.34601104 26.19734414-21.97277227 35.8713624-29.99695869c13.19866172-10.89889541 16.9732793-13.87359317 18.79809433-15.22345605l0.27497197-0.19998018A95.19034834 95.19034834 0 0 1 549.0647624 62a51.24480469 51.24480469 0 0 1 5.5494378 0.29996982 59.14400362 59.14400362 0 0 1 44.37050097 27.49721221 114.0384375 114.0384375 0 0 1 16.37334053 43.39559971 240.35063115 240.35063115 0 0 1 3.77461669 40.37090713v688.70517275a139.98580664 139.98580664 0 0 1-7.24926445 42.99564111 90.14086055 90.14086055 0 0 1-26.34732861 40.99584287 64.61844873 64.61844873 0 0 1-43.64557559 15.74840391zM214.92364063 642.09118555a27.17224541 27.17224541 0 0 1 17.24825127 6.19937138c32.29672588 26.67229541 64.99341036 53.91953349 97.01516425 80.96679053l0.14998448 0.17498233c27.49721221 23.49761748 57.74414502 49.99493145 90.26584804 78.44204706s63.19359316 55.81934033 91.99067344 81.8167043a6.07438388 6.07438388 0 0 0 0.34996464 0.49994912 53.16960938 53.16960938 0 0 0 27.24723721 17.24825127 9.99898594 9.99898594 0 0 0 2.64973096 0.249975 12.62371992 12.62371992 0 0 0 8.2241666-2.49974648 38.17112959 38.17112959 0 0 0 10.17396827-16.74830215 85.79130205 85.79130205 0 0 0 4.62453134-26.24733897V173.46369922a185.60618174 185.60618174 0 0 0-2.99969561-31.07185049 60.8188333 60.8188333 0 0 0-8.27416142-22.92267568 5.52443994 5.52443994 0 0 0-4.69952402-3.19967578 52.09471846 52.09471846 0 0 0-22.29773906 11.77380703c-0.97490127 0.74992412-4.5245417 3.52464258-16.77329912 13.62361817-9.5740295 7.89919893-21.49782011 17.84819003-35.47140382 29.59699921S444.20039492 196.48636455 426.57718203 210.98489434c-17.24825127 14.22355781-35.17143398 29.14704492-53.19460723 44.39549883l-0.27497197 0.22497714a15288.87487763 15288.87487763 0 0 0-141.5356497 118.8129542 27.07225488 27.07225488 0 0 1-17.49822628 6.44934551H165.67863418a22.49771924 22.49771924 0 0 0-17.49822627 7.07428301 24.99746573 24.99746573 0 0 0-6.94929551 15.39843926 26.99726308 26.99726308 0 0 1-0.24997412 12.49873242v207.47896347a18.24814951 18.24814951 0 0 0 6.22436836 14.12356817 24.5725084 24.5725084 0 0 0 18.49812451 6.37435371h14.42353799a114.9883418 114.9883418 0 0 0 13.1486669-0.69992842 29.74698369 29.74698369 0 0 1 2.9996956-0.14998535c5.42445029 0 10.87389756-0.249975 16.19835732-0.72492627h2.49974649z" p-id="2206"></path></svg>