<?xml version="1.0" standalone="no"?><!DOCTYPE svg PUBLIC "-//W3C//DTD SVG 1.1//EN" "http://www.w3.org/Graphics/SVG/1.1/DTD/svg11.dtd"><svg t="1599458536736" class="icon" viewBox="0 0 1024 1024" version="1.1" xmlns="http://www.w3.org/2000/svg" p-id="1595" xmlns:xlink="http://www.w3.org/1999/xlink" width="200" height="200"><defs><style type="text/css"></style></defs><path d="M380.731 536.487a242.213 242.213 0 1 1 136.688 42.225c-196.425 0-354.525 143.7-354.525 319.388a31.575 31.575 0 0 1-63.188 0c0-167.925 117.75-309.863 281.025-361.613z m136.688-21a179.025 179.025 0 1 0 0-358.012 179.025 179.025 0 0 0 0 358.05zM651.93 833.563l215.1-180.488a35.1 35.1 0 1 1 45.15 53.775L670.156 909.912a35.1 35.1 0 0 1-49.462-4.312l-100.95-120.375a35.1 35.1 0 1 1 53.775-45.075l78.375 93.413z" p-id="1596"></path></svg>