<?xml version="1.0" standalone="no"?><!DOCTYPE svg PUBLIC "-//W3C//DTD SVG 1.1//EN" "http://www.w3.org/Graphics/SVG/1.1/DTD/svg11.dtd"><svg t="1599121038138" class="icon" viewBox="0 0 1024 1024" version="1.1" xmlns="http://www.w3.org/2000/svg" p-id="2767" xmlns:xlink="http://www.w3.org/1999/xlink" width="200" height="200"><defs><style type="text/css"></style></defs><path d="M380.73124971 536.48749971a242.2125 242.2125 0 1 1 136.6875 42.22500029c-196.425 0-354.52500029 143.70000029-354.52499942 319.3875a31.57499971 31.57499971 0 0 1-63.18750058 0c0-167.92499971 117.74999971-309.86250029 281.025-361.61250029z m136.6875-20.99999971a179.02500029 179.02500029 0 1 0 0-358.01250029 179.02500029 179.02500029 0 0 0 0 358.05000058z m134.51250058 318.07500029l215.1-180.48750029a35.1 35.1 0 1 1 45.14999942 53.775l-242.02499942 203.0625a35.1 35.1 0 0 1-49.46250058-4.31250029l-100.94999942-120.375a35.1 35.1 0 1 1 53.775-45.07499971l78.37499971 93.41250029z" fill="#000000" p-id="2768"></path></svg>