<?xml version="1.0" standalone="no"?><!DOCTYPE svg PUBLIC "-//W3C//DTD SVG 1.1//EN" "http://www.w3.org/Graphics/SVG/1.1/DTD/svg11.dtd"><svg t="1597892528144" class="icon" viewBox="0 0 1080 1024" version="1.1" xmlns="http://www.w3.org/2000/svg" p-id="1455" xmlns:xlink="http://www.w3.org/1999/xlink" width="210.9375" height="200"><defs><style type="text/css"></style></defs><path d="M546.90081974 424.83790269a170.26477268 170.26477268 0 0 1-170.0507236-170.05072361A170.26477268 170.26477268 0 0 1 546.90081974 84.73739428a170.26477268 170.26477268 0 0 1 170.05072362 170.05072362 170.26477268 170.26477268 0 0 1-170.05072362 170.05072361z m0-272.06012839c-56.29115123 0-102.00940479 45.77082702-102.00940477 102.00940478s45.71731474 102.00940479 102.00940477 102.00940479c56.23857778 0 102.00940479-45.77082702 102.0094048-102.00940479s-45.77082702-102.00940479-102.0094048-102.00940478z m272.06012841 737.51077879A170.26477268 170.26477268 0 0 1 648.91022454 720.23782947a170.26477268 170.26477268 0 0 1 170.05072361-170.0507236A170.26477268 170.26477268 0 0 1 989.01167178 720.23782947a170.26477268 170.26477268 0 0 1-170.05072363 170.05072362z m0-272.11364067c-56.23857778 0-102.00940479 45.82340045-102.0094048 102.00940479 0 56.29115123 45.77082702 102.06291706 102.0094048 102.06291704s102.00940479-45.77082702 102.00940478-102.00940478-45.77082702-102.00940479-102.00940478-102.00940478z m-544.17283026 272.11364067A170.26477268 170.26477268 0 0 1 104.73551666 720.23782947a170.26477268 170.26477268 0 0 1 170.05072362-170.0507236A170.26477268 170.26477268 0 0 1 444.83790268 720.23782947a170.26477268 170.26477268 0 0 1-170.0507236 170.05072362z m0-272.11364067c-56.2395166 0-102.01034359 45.82340045-102.01034359 102.00940479 0 56.29115123 45.77082702 102.06291706 102.00940478 102.06291704s102.00940479-45.77082702 102.00940479-102.00940478-45.77082702-102.00940479-102.00940479-102.00940478z" fill="#ffffff" p-id="1456"></path><path d="M249.84576789 520.91871142a34.02065941 34.02065941 0 0 1-33.0593162-42.19207669A339.51468989 339.51468989 0 0 1 395.16819058 256.44324298a34.02065941 34.02065941 0 1 1 30.44190912 60.83124475 271.73905478 271.73905478 0 0 0-142.81204014 177.84849383 34.02065941 34.02065941 0 0 1-32.95323048 25.79572986zM546.90081974 901.02480401a338.01916282 338.01916282 0 0 1-192.2151297-59.49719328 34.02065941 34.02065941 0 1 1 38.4537284-56.07804098 274.35646189 274.35646189 0 0 0 220.41421759 39.2545348 34.02065941 34.02065941 0 1 1 16.55688364 66.01254668 341.38386405 341.38386405 0 0 1-83.31672447 10.30815278z m305.27998141-283.54273464a34.02065941 34.02065941 0 0 1-33.91457369-36.53104197 270.45757678 270.45757678 0 0 0-77.70826318-211.17631019 34.02065941 34.02065941 0 1 1 48.38729528-47.79959915 338.07267508 338.07267508 0 0 1 97.14917647 264.04924791 34.02065941 34.02065941 0 0 1-33.91363488 31.51027686z" fill="#ffffff" p-id="1457"></path><path d="M244.98647839 520.91871142a34.02065941 34.02065941 0 0 1-32.79269368-25.20803371l-17.62525138-65.69147308a34.02065941 34.02065941 0 1 1 65.69147307-17.6252514l17.62525139 65.6924119a34.02065941 34.02065941 0 0 1-32.89971821 42.83234629z m585.51058827-123.37206567a33.11282847 33.11282847 0 0 1-8.86613796-1.22796573l-65.69147308-17.6252514a34.02065941 34.02065941 0 1 1 17.62431257-65.69147307l65.6924119 17.62431259a34.02065941 34.02065941 0 0 1-8.75911343 66.86686534zM573.81842963 939.10300772a33.96714715 33.96714715 0 0 1-24.03358025-58.05423966l48.06716049-48.0671605a34.02065941 34.02065941 0 0 1 48.12067275 48.0671605l-48.06716047 48.06716049a33.96714715 33.96714715 0 0 1-24.08709252 9.98707917z" fill="#ffffff" p-id="1458"></path></svg>