<?xml version="1.0" standalone="no"?><!DOCTYPE svg PUBLIC "-//W3C//DTD SVG 1.1//EN" "http://www.w3.org/Graphics/SVG/1.1/DTD/svg11.dtd"><svg t="1600074657879" class="icon" viewBox="0 0 1024 1024" version="1.1" xmlns="http://www.w3.org/2000/svg" p-id="2493" xmlns:xlink="http://www.w3.org/1999/xlink" width="200" height="200"><defs><style type="text/css"></style></defs><path d="M512 110.336c55.104 13.248 168.768 44.544 228.864 76.224 29.376 76.416 80.64 143.232 147.072 191.616 5.952 25.152 9.024 51.648 9.024 79.296 0 74.496-20.16 145.344-59.712 210.624-32.64 53.76-78.72 104.448-136.896 150.336-75.84 59.904-153.024 96.384-187.968 111.36-34.56-14.784-110.208-50.88-185.664-110.208-58.752-46.272-105.408-96.96-138.624-151.104-40.32-65.664-60.672-136.704-60.672-211.2 0-27.648 3.072-54.144 9.024-79.296 66.24-48.384 117.696-115.2 147.072-191.616 59.52-31.488 173.376-62.592 228.48-76.032m0-59.136S314.432 96.32 235.904 147.392c-26.304 81.024-79.872 149.76-149.952 195.264-10.752 34.944-16.512 73.152-16.512 114.816C69.632 831.68 512 992 512 992s442.368-158.592 442.368-534.528c0-41.472-5.76-79.872-16.512-114.816-70.08-45.504-123.648-114.24-149.952-195.264C709.568 96.32 512 51.2 512 51.2z" fill="#ffffff" p-id="2494"></path><path d="M512 402.944l13.632 27.648 13.44 27.072 29.952 4.416 30.528 4.416-22.08 21.504-21.696 21.12 5.184 29.76 5.184 30.336-27.264-14.4-26.88-14.016-26.88 14.016-27.264 14.4 5.184-30.336 5.184-29.76-21.696-21.12-22.08-21.504 30.528-4.416 29.952-4.416 13.44-27.072 13.632-27.648m0-130.176l-65.28 132.288-145.92 21.12 105.6 102.912-24.96 145.344 130.56-68.544 130.56 68.544-24.96-145.344 105.6-102.912-145.92-21.12-65.28-132.288z" fill="#ffffff" p-id="2495"></path></svg>