<?xml version="1.0" encoding="UTF-8"?>
<svg width="16px" height="16px" viewBox="0 0 16 16" version="1.1" xmlns="http://www.w3.org/2000/svg" xmlns:xlink="http://www.w3.org/1999/xlink">
    <!-- Generator: Sketch 64 (93537) - https://sketch.com -->
    <title>奖品</title>
    <desc>Created with Sketch.</desc>
    <g id="奖品" stroke="none" stroke-width="1" fill="none" fill-rule="evenodd">
        <g id="编组" transform="translate(1.000000, 1.000000)" fill="#FFFFFF" fill-rule="nonzero">
            <path d="M13.4166667,2.00029983 L0.35,2.00029983 C0.156700338,2.00029983 0,2.16819305 0,2.37529983 L0,5.37529983 C0,5.58240661 0.156700338,5.75029983 0.35,5.75029983 L13.4166667,5.75029983 C13.6099663,5.75029983 13.7666667,5.58240661 13.7666667,5.37529983 L13.7666667,2.37529983 C13.7666667,2.16819305 13.6099663,2.00029983 13.4166667,2.00029983 Z M13.0666667,2.75029983 L13.0666667,5.00029983 L0.7,5.00029983 L0.7,2.75029983 L13.0666667,2.75029983 Z" id="矩形"></path>
            <path d="M12.4833333,5.00029983 C12.6524705,5.00029983 12.7935864,5.12884307 12.8262226,5.29972425 L12.8333333,5.37529983 L12.8333333,13.3752998 C12.8333333,13.5565183 12.7133596,13.7077138 12.5538705,13.7426812 L12.4833333,13.7502998 L1.28333333,13.7502998 C1.11419613,13.7502998 0.973080282,13.6217566 0.940444089,13.4508754 L0.933333333,13.3752998 L0.933333333,5.37529983 C0.933333333,5.16819305 1.09003367,5.00029983 1.28333333,5.00029983 C1.45247054,5.00029983 1.59358638,5.12884307 1.62622258,5.29972425 L1.63333333,5.37529983 L1.63333333,13.0002998 L12.1333333,13.0002998 L12.1333333,5.37529983 C12.1333333,5.1940814 12.253307,5.04288585 12.4127961,5.0079185 L12.4833333,5.00029983 Z" id="路径"></path>
            <path d="M9.4957275,0.00476822237 C9.94003375,-0.0249335294 10.3343962,0.0928381874 10.604829,0.362218616 C10.9213555,0.67751329 11.0089881,1.17260062 10.9099819,1.81702866 C10.8797933,2.01352524 10.8045198,2.24878296 10.6852034,2.53033569 C10.6052877,2.71891395 10.3978219,2.80237491 10.2218155,2.71675097 C10.0458092,2.63112703 9.96791227,2.40884222 10.0478279,2.22026397 C10.1439194,1.99351547 10.2007218,1.81598682 10.2192769,1.69521188 C10.2840561,1.27356649 10.2396129,1.02248125 10.1282023,0.911504183 C10.0135258,0.797273894 9.80650958,0.735450943 9.53931789,0.753312635 C9.11203432,0.781876424 8.61825301,1.00606752 8.1984967,1.38580807 C7.94427867,1.61579125 7.75269737,1.835138 7.62317018,2.04129974 C7.53497833,2.18167014 7.46537221,2.33276391 7.41404946,2.49540656 C7.35213855,2.69160324 7.15350426,2.79687846 6.97038736,2.73054534 C6.78727046,2.66421222 6.68901359,2.45138978 6.7509245,2.2551931 C6.82213321,2.02953154 6.91941922,1.81835312 7.04248019,1.62248335 C7.21133124,1.35373185 7.44633111,1.08467398 7.74689718,0.812761156 C8.27817986,0.332126156 8.91345437,0.0436930212 9.4957275,0.00476822237 Z" id="路径-5"></path>
            <path d="M4.94567135,0.130989843 C5.62173965,-0.098195746 6.27336766,-0.0300173493 6.66713598,0.362218616 C7.11090668,0.804262386 7.11090668,1.53301354 6.75492393,2.51149325 C6.68472089,2.70445837 6.48180954,2.79991164 6.30170876,2.72469409 C6.12160798,2.64947655 6.03251826,2.43207153 6.1027213,2.23910641 C6.36571157,1.5162325 6.36571157,1.0860247 6.19050926,0.911504183 C6.01014878,0.731845574 5.61552308,0.690556761 5.15683248,0.846051815 C4.86501906,0.944975891 4.56091429,1.12839416 4.25382141,1.39196095 C4.1332927,1.49540642 3.99584792,1.66399646 3.84621875,1.89708085 L3.71246749,2.11409063 C3.63724408,2.2399353 3.54955573,2.3917109 3.44965778,2.56906321 C3.34977939,2.74638081 3.1346506,2.8033743 2.96915418,2.69636174 C2.80365775,2.58934918 2.75046382,2.35885404 2.85034222,2.18153645 L3.12565821,1.70515362 C3.17885566,1.61624136 3.22676836,1.53857701 3.26947195,1.47205561 C3.45486281,1.18326356 3.63552372,0.961664524 3.81618635,0.806608275 C4.18715336,0.488220608 4.56609408,0.259665663 4.94567135,0.130989843 Z" id="路径-5备份" transform="translate(4.905895, 1.375200) scale(-1, 1) translate(-4.905895, -1.375200) "></path>
            <path d="M6.90833333,2.19060745 C7.08955177,2.19060745 7.24074732,2.31915069 7.27571467,2.49003187 L7.28333333,2.56560745 L7.28333333,13.1716008 C7.28333333,13.3787075 7.11544011,13.5466008 6.90833333,13.5466008 C6.7271149,13.5466008 6.57591935,13.4180575 6.540952,13.2471763 L6.53333333,13.1716008 L6.53333333,2.56560745 C6.53333333,2.35850066 6.70122655,2.19060745 6.90833333,2.19060745 Z" id="路径-6"></path>
        </g>
    </g>
</svg>