<?xml version="1.0" standalone="no"?><!DOCTYPE svg PUBLIC "-//W3C//DTD SVG 1.1//EN" "http://www.w3.org/Graphics/SVG/1.1/DTD/svg11.dtd"><svg t="1604282746386" class="icon" viewBox="0 0 1024 1024" version="1.1" xmlns="http://www.w3.org/2000/svg" p-id="5886" xmlns:xlink="http://www.w3.org/1999/xlink" width="200" height="200"><defs><style type="text/css"></style></defs><path d="M511.999488 949.020308c-117.532857 0-228.322126-18.036795-311.960011-50.78771-89.400123-35.006282-138.635477-83.833337-138.635477-137.485281 0-27.15036 13.024641-67.624167 75.074859-106.260116 43.931558-27.352975 105.499799-49.376571 178.050162-63.686485 10.534937-2.079358 20.759813 4.776793 22.838148 15.312754 2.077312 10.534937-4.777817 20.759813-15.312754 22.837124-132.644019 26.163893-221.763756 79.129198-221.763756 131.796722 0 36.011168 41.525766 72.925916 113.927749 101.276614 79.229482 31.024597 184.984085 48.110741 297.782104 48.110741 112.798019 0 218.551598-17.08512 297.78108-48.110741 72.40403-28.350698 113.928772-65.264423 113.928772-101.276614 0-53.358255-90.715071-106.633622-225.734184-132.569318-10.546194-2.025123-17.452487-12.216229-15.426341-22.7614 2.025123-10.547217 12.220323-17.452487 22.7614-15.426341 73.634044 14.144138 136.194892 36.170804 180.917466 63.696718 63.11855 38.848797 76.367295 79.662341 76.367295 107.060341 0 53.651944-49.234331 102.478999-138.635477 137.485281C740.321614 930.984536 629.531322 949.020308 511.999488 949.020308zM512.012791 768.30955c-5.720282 0-11.384281-2.511193-15.223726-7.334036-92.082208-115.657136-145.973606-214.814484-174.967964-277.630135-30.347169-65.7464-40.566928-106.270349-41.764196-111.246687-5.770424-20.85191-8.696056-42.488697-8.696056-64.314795 0-64.276932 25.031093-124.706233 70.481238-170.157401 45.451168-45.451168 105.880469-70.481238 170.157401-70.481238 10.737552 0 19.442818 8.704243 19.442818 19.442818 0 10.737552-8.705266 19.442818-19.442818 19.442818-111.246687 0-201.753003 90.506317-201.753003 201.753003 0 18.428721 2.480494 36.682457 7.372921 54.251601l0.211824 0.830925c0.085958 0.367367 9.552563 40.024575 39.969317 105.638969 28.078499 60.57154 80.263022 156.279323 169.410388 268.251533 6.688329 8.400321 5.300726 20.6319-3.100618 27.320229C520.531815 766.925017 516.256442 768.30955 512.012791 768.30955zM515.917728 768.30955c-4.243651 0-8.518001-1.384533-12.096503-4.233418-8.400321-6.688329-9.788947-18.919908-3.100618-27.320229 171.202197-215.035518 209.017454-372.32689 209.378681-373.890502l0.211824-0.829901c4.892427-17.571191 7.372921-35.823903 7.372921-54.251601 0-111.246687-90.505293-201.753003-201.753003-201.753003-10.737552 0-19.442818-8.705266-19.442818-19.442818 0-10.738575 8.705266-19.442818 19.442818-19.442818 64.276932 0 124.706233 25.031093 170.157401 70.481238 45.450145 45.451168 70.481238 105.880469 70.481238 170.157401 0 21.824051-2.925632 43.459814-8.696056 64.313771-1.195222 4.972245-11.414981 45.497217-41.764196 111.24771-28.994358 62.815651-82.885755 161.972998-174.967964 277.630135C527.303033 765.797333 521.636986 768.30955 515.917728 768.30955zM511.999488 433.513438c-63.685461 0-115.496477-51.811016-115.496477-115.496477s51.811016-115.496477 115.496477-115.496477c63.684438 0 115.496477 51.811016 115.496477 115.496477S575.683926 433.513438 511.999488 433.513438zM511.999488 241.405095c-42.243103 0-76.610842 34.367739-76.610842 76.610842s34.367739 76.610842 76.610842 76.610842 76.610842-34.367739 76.610842-76.610842S554.242592 241.405095 511.999488 241.405095z" p-id="5887"></path></svg>