<?xml version="1.0" standalone="no"?><!DOCTYPE svg PUBLIC "-//W3C//DTD SVG 1.1//EN" "http://www.w3.org/Graphics/SVG/1.1/DTD/svg11.dtd"><svg t="1605146257158" class="icon" viewBox="0 0 1024 1024" version="1.1" xmlns="http://www.w3.org/2000/svg" p-id="11350" xmlns:xlink="http://www.w3.org/1999/xlink" width="200" height="200"><defs><style type="text/css"></style></defs><path d="M237.303467 377.216l113.152 106.026667c16.584533 16.763733 33.6512 43.933867 17.066666 60.693333-16.597333 16.759467-39.227733 16.759467-55.816533 0L138.368 368.3968c-13.162667-13.2608-14.122667-34.491733-0.96-47.752533l174.301867-178.2784c16.5888-16.759467 39.223467-16.759467 55.812266 0s-0.477867 43.933867-17.066666 60.689066L238.775467 313.216h380.881066c153.211733 0 276.343467 132.881067 276.343467 285.738667 0 152.853333-123.136 298.845867-276.343467 298.845866H213.457067c-23.317333 0-42.88-10.824533-42.88-34.133333 0-23.313067 19.562667-29.870933 42.88-29.870933h402.816c102.762667 0 215.714133-132.322133 215.714133-234.845867s-112.951467-221.725867-215.714133-221.725867H237.303467z" p-id="11351"></path></svg>