<?xml version="1.0" standalone="no"?><!DOCTYPE svg PUBLIC "-//W3C//DTD SVG 1.1//EN" "http://www.w3.org/Graphics/SVG/1.1/DTD/svg11.dtd"><svg t="1597890727570" class="icon" viewBox="0 0 1024 1024" version="1.1" xmlns="http://www.w3.org/2000/svg" p-id="1423" xmlns:xlink="http://www.w3.org/1999/xlink" width="200" height="200"><defs><style type="text/css"></style></defs><path d="M874 677.3V361.5c0-16.9 13.7-30.5 30.5-30.5s30.5 13.7 30.5 30.5v315.7M505 835.3c-155.9 0-278-82.1-278-187 0-16.9 13.7-30.5 30.5-30.5s30.5 13.7 30.5 30.5c0 68.3 99.3 125.9 216.9 125.9s216.9-57.7 216.9-125.9c0-16.9 13.7-30.5 30.5-30.5 16.9 0 30.5 13.7 30.5 30.5 0.2 104.8-121.9 187-277.8 187z" fill="#ffffff" p-id="1424"></path><path d="M257.6 694.1c-16.9 0-30.5-13.7-30.5-30.5V431.3c0-16.9 13.7-30.5 30.5-30.5s30.5 13.7 30.5 30.5v232.2c0 17-13.6 30.6-30.5 30.6zM752.5 694.1c-16.9 0-30.5-13.7-30.5-30.5V431.3c0-16.9 13.7-30.5 30.5-30.5 16.9 0 30.5 13.7 30.5 30.5v232.2c0 17-13.7 30.6-30.5 30.6z" fill="#ffffff" p-id="1425"></path><path d="M906.7 827.1c-56 0-101.7-45.6-101.7-101.6s45.6-101.7 101.7-101.7c56 0 101.6 45.6 101.6 101.7s-45.5 101.6-101.6 101.6z m0-142.2c-22.4 0-40.6 18.2-40.6 40.6 0 22.4 18.2 40.6 40.6 40.6 22.4 0 40.6-18.2 40.6-40.6 0-22.4-18.2-40.6-40.6-40.6z" fill="#ffffff" p-id="1426"></path><path d="M505 550.6c-3.8 0-7.6-0.7-11.2-2.1L51.1 373.7c-11.7-4.6-19.4-16-19.3-28.6 0.1-12.6 7.9-23.9 19.7-28.3l434.8-164.9c6.8-2.6 14.4-2.6 21.3-0.1l450.7 164.9c11.9 4.4 19.9 15.6 20 28.3s-7.5 24.1-19.3 28.8L516.2 548.5a30.9 30.9 0 0 1-11.2 2.1zM146.9 345.9L505 487.3l356.8-140.9L497.3 213 146.9 345.9z" fill="#ffffff" p-id="1427"></path></svg>