<?xml version="1.0" standalone="no"?><!DOCTYPE svg PUBLIC "-//W3C//DTD SVG 1.1//EN" "http://www.w3.org/Graphics/SVG/1.1/DTD/svg11.dtd"><svg t="1599123209405" class="icon" viewBox="0 0 1024 1024" version="1.1" xmlns="http://www.w3.org/2000/svg" p-id="3496" xmlns:xlink="http://www.w3.org/1999/xlink" width="200" height="200"><defs><style type="text/css"></style></defs><path d="M512 0C229.184 0 0 229.216 0 512c0 282.816 229.184 512 512 512 282.784 0 512-229.184 512-512 0-282.784-229.216-512-512-512z m32 800a31.968 31.968 0 1 1-64 0 31.968 31.968 0 1 1 64 0z m0-128a31.968 31.968 0 1 1-64 0V224a31.968 31.968 0 1 1 64 0v448z" p-id="3497"></path></svg>