<?xml version="1.0" standalone="no"?><!DOCTYPE svg PUBLIC "-//W3C//DTD SVG 1.1//EN" "http://www.w3.org/Graphics/SVG/1.1/DTD/svg11.dtd"><svg t="1600934845895" class="icon" viewBox="0 0 1024 1024" version="1.1" xmlns="http://www.w3.org/2000/svg" p-id="1464" xmlns:xlink="http://www.w3.org/1999/xlink" width="200" height="200"><defs><style type="text/css"></style></defs><path d="M511.4481243 3.00862464c-280.29588366 0-507.40211257 227.19122205-507.40211257 507.40211257 0 280.23534023 227.10622891 507.42539833 507.40211257 507.42539833 280.21089053 0 507.40793344-227.1900581 507.40793344-507.42539833C1018.85605774 230.20101177 791.65901483 3.00862464 511.4481243 3.00862464zM832.02628835 831.00869405c-85.63623026 85.63739421-199.48565731 132.79949369-320.57816405 132.79949368-121.12277845 0-234.98268445-47.16093554-320.60494279-132.79600071-85.61643634-85.6292443-132.76805803-199.48682126-132.76805802-320.60028587 0-121.10182173 47.15162055-234.95241273 132.76689294-320.57816405 85.62458624-85.63390123 199.48449337-132.79483677 320.60610674-132.79483676 121.09134279 0 234.94076985 47.16209949 320.57816405 132.79832974 85.63739421 85.63623026 132.79949369 199.48565731 132.79949369 320.57583502C964.82694599 631.51255893 917.66368256 745.36897195 832.02628835 831.00869405z" p-id="1465"></path><path d="M510.20815019 679.54322205c23.45239552 0 42.36869746-18.95123058 42.36869746-42.27788232L552.57684651 172.14227456c0-23.36973027-18.91630194-42.28021021-42.36869746-42.28021021-23.28590109 0-42.19987399 18.91047993-42.19987399 42.28021021l0 465.12306631C468.00711111 660.59199147 486.9222491 679.54322205 510.20815019 679.54322205z" p-id="1466"></path><path d="M510.21397106 772.7648347c-30.25886435 0-54.80103936 24.54683307-54.80103936 54.79521849 0 30.25420743 24.54799701 54.80103936 54.80103936 54.80103936 30.32057173 0 54.79638243-24.54683307 54.79638243-54.80103936C565.00918955 797.30584576 540.53454279 772.7648347 510.21397106 772.7648347z" p-id="1467"></path></svg>