<?xml version="1.0" standalone="no"?><!DOCTYPE svg PUBLIC "-//W3C//DTD SVG 1.1//EN" "http://www.w3.org/Graphics/SVG/1.1/DTD/svg11.dtd"><svg t="1597891801148" class="icon" viewBox="0 0 1024 1024" version="1.1" xmlns="http://www.w3.org/2000/svg" p-id="1787" xmlns:xlink="http://www.w3.org/1999/xlink" width="200" height="200"><defs><style type="text/css"></style></defs><path d="M594.43456 777.813333h-151.893333a32.426667 32.426667 0 0 1 0-64.853333h152.32a32.426667 32.426667 0 1 1 0 64.853333z m0 0" fill="#ffffff" p-id="1788"></path><path d="M991.23456 777.813333h-85.333333a32.426667 32.426667 0 1 1 0-64.853333h52.053333v-184.32c0-123.733333-177.92-167.253333-179.626667-167.253333a30.293333 30.293333 0 0 1-22.613333-20.053334c-2.133333-5.546667-50.346667-140.8-317.44-140.8a310.186667 310.186667 0 0 0-256 110.933334A304.64 304.64 0 0 0 128.087893 418.133333a32.853333 32.853333 0 0 1-23.04 25.6 61.866667 61.866667 0 0 0-38.826666 63.146667v206.08h64.853333a32.426667 32.426667 0 0 1 0 64.853333H32.941227a32.853333 32.853333 0 0 1-32.853334-32.426666v-238.506667a128 128 0 0 1 67.84-117.76A341.333333 341.333333 0 0 1 128.087893 269.226667a370.346667 370.346667 0 0 1 308.48-135.68c263.253333 0 348.586667 122.026667 372.053334 170.666666 52.906667 15.786667 213.333333 77.226667 213.333333 226.133334v216.746666a32.853333 32.853333 0 0 1-32.853333 32z m0 0" fill="#ffffff" p-id="1789"></path><path d="M656.301227 439.04H106.75456a32.426667 32.426667 0 0 1 0-64.853333h548.693333a177.493333 177.493333 0 0 0 128-38.4 32.426667 32.426667 0 0 1 48.64 42.666666c-5.12 6.4-56.32 59.733333-174.506666 59.733334z m0 0" fill="#ffffff" p-id="1790"></path><path d="M432.301227 426.666667a32.426667 32.426667 0 0 1-32.426667-32.426667v-213.333333a32.426667 32.426667 0 1 1 64.853333 0v213.333333a32.426667 32.426667 0 0 1-32.426666 31.573333zM250.11456 890.453333a145.493333 145.493333 0 1 1 145.493333-145.066666 145.92 145.92 0 0 1-145.493333 145.066666z m0-226.133333a80.213333 80.213333 0 1 0 80.213333 80.213333 80.213333 80.213333 0 0 0-80.213333-80.213333z m535.893333 226.133333a145.493333 145.493333 0 1 1 145.493334-145.066666 145.493333 145.493333 0 0 1-145.493334 145.066666z m0-226.133333a80.213333 80.213333 0 1 0 80.64 80.213333 80.213333 80.213333 0 0 0-80.64-80.213333z m26.88-112.213333h-78.506666a27.306667 27.306667 0 0 1-27.306667-27.306667 26.88 26.88 0 0 1 27.306667-27.306667h78.506666a27.306667 27.306667 0 1 1 0 54.613334z m0 0" fill="#ffffff" p-id="1791"></path></svg>