<?xml version="1.0" standalone="no"?><!DOCTYPE svg PUBLIC "-//W3C//DTD SVG 1.1//EN" "http://www.w3.org/Graphics/SVG/1.1/DTD/svg11.dtd"><svg t="1604458318014" class="icon" viewBox="0 0 1024 1024" version="1.1" xmlns="http://www.w3.org/2000/svg" p-id="2318" xmlns:xlink="http://www.w3.org/1999/xlink" width="200" height="200"><defs><style type="text/css"></style></defs><path d="M923.15442313 280.51574188L640.57571187 51.67016469C602.6746625 20.96551719 547.02248844 27.20239906 516.79760094 64.62368844L119.07646156 555.89805125c-27.34632656 33.58320844-25.42728656 81.07946062 1.43928094 112.74362813l2.87856 2.87856093c2.39880094 2.87856094 5.27736094 5.27736094 8.63568281 8.15592188L89.81109406 727.65217438c-15.83208375 18.23088469-23.50824563 41.25937031-21.58920469 65.24737593 1.91904094 23.50824563 13.43328375 45.09745125 32.1439275 59.970015l146.80659657 118.98051c16.79160375 13.43328375 36.46176937 20.14992469 56.61169406 20.14992469 24.94752656 0 49.41529219-10.55472281 67.16641687-30.7046475L416.04797562 909.96101938c37.90104937 29.2653675 92.59370344 23.02848563 122.33883094-14.39280375l138.17091469-170.31484219h191.90404781v105.54722625c0 14.87256375 11.99400281 27.34632656 27.34632657 27.34632656 14.87256375 0 27.34632656-11.99400281 27.3463275-27.34632656v-265.30734656c0-14.87256375-11.99400281-27.34632656-27.3463275-27.34632657s-27.34632656 11.99400281-27.34632657 27.34632656v105.54722625h-147.76611656l215.89205344-266.74662656c30.2248875-37.42128938 24.46776656-93.07346344-13.43328282-123.77811094zM330.170915 925.31334313c-12.47376281 14.39280375-33.58320844 15.83208375-48.45577219 3.83808093l-146.8065975-118.98050906c-7.19640187-5.75712188-11.51424281-13.91304375-11.99400281-22.54872656-0.95952-9.11544188 1.91904094-17.75112469 8.15592188-24.46776563l43.65817125-49.89505218 199.10044968 162.15892031-43.65817031 49.89505218zM893.88905562 370.23088437L496.16791625 861.50524719c-11.51424281 14.39280375-33.10344844 16.79160375-47.49625219 4.79760094l-18.71064468-15.35232375c-0.47976 0-0.47976-0.47976-0.95952-0.47976l-267.7061475-217.81109438c-9.59520281-11.99400281-10.07496281-30.2248875-1e-8-42.69865031l397.72114032-491.27436281c6.71664188-8.15592188 16.31184375-12.47376281 26.38680656-12.47376375 7.67616188 0 14.87256375 2.39880094 21.10944469 7.67616281l201.01949062 162.63868031-0.47976 0.47976L631.94003 474.33883062c-8.15592188 10.07496281-6.71664188 24.94752656 3.35832094 33.58320844 10.07496281 8.15592188 24.94752656 6.71664188 33.58320843-3.35832094l175.11244407-217.33133437s0-0.47976 0.47976-0.47976l45.09745125 36.46176938c13.91304375 11.03448281 16.31184375 32.62368844 4.31784094 47.01649125z" p-id="2319"></path></svg>