<?xml version="1.0" standalone="no"?><!DOCTYPE svg PUBLIC "-//W3C//DTD SVG 1.1//EN" "http://www.w3.org/Graphics/SVG/1.1/DTD/svg11.dtd"><svg t="1605773042884" class="icon" viewBox="0 0 1024 1024" version="1.1" xmlns="http://www.w3.org/2000/svg" p-id="2301" xmlns:xlink="http://www.w3.org/1999/xlink" width="200" height="200"><defs><style type="text/css"></style></defs><path d="M312.481 134.909c39.875 0 72.319 32.447 72.319 72.33v125.712c0 39.879-32.443 72.327-72.319 72.327h-125.698c-39.875 0-72.319-32.447-72.319-72.327v-125.712c0-39.882 32.443-72.33 72.319-72.33h125.698zM312.481 94.996h-125.698c-61.986 0-112.234 50.25-112.234 112.242v125.712c0 61.988 50.247 112.241 112.234 112.241h125.698c61.987 0 112.234-50.25 112.234-112.241v-125.712c0-61.989-50.246-112.242-112.234-112.242v0z" p-id="2302"></path><path d="M945.411 667.435c0 11.158-8.21 20.207-18.337 20.207h-412.257c-10.132 0-18.339-9.049-18.339-20.207v0c0-11.158 8.21-20.201 18.339-20.201h412.257c10.132-0.001 18.337 9.044 18.337 20.201v0 0z" p-id="2303"></path><path d="M945.411 856.025c0 11.158-8.21 20.201-18.337 20.201h-412.257c-10.132 0-18.339-9.045-18.339-20.201v0c0-11.158 8.21-20.207 18.339-20.207h412.257c10.132 0 18.337 9.046 18.337 20.207v0 0z" p-id="2304"></path><path d="M945.411 175.803c0 11.158-8.21 20.207-18.337 20.207h-412.257c-10.132 0-18.339-9.046-18.339-20.207v0c0-11.158 8.21-20.201 18.339-20.201h412.257c10.132-0.001 18.337 9.044 18.337 20.201v0 0z" p-id="2305"></path><path d="M945.411 364.385c0 11.158-8.21 20.201-18.337 20.201h-412.257c-10.132 0-18.339-9.044-18.339-20.201v0c0-11.158 8.21-20.202 18.339-20.202h412.257c10.132 0 18.337 9.046 18.337 20.202v0 0z" p-id="2306"></path><path d="M312.481 626.543c39.875 0 72.319 32.447 72.319 72.333v125.712c0 39.882-32.443 72.327-72.319 72.327h-125.698c-39.875 0-72.319-32.445-72.319-72.327v-125.712c0-39.882 32.443-72.333 72.319-72.333h125.698zM312.481 586.624h-125.698c-61.986 0-112.234 50.255-112.234 112.247v125.712c0 61.994 50.247 112.241 112.234 112.241h125.698c61.987 0 112.234-50.249 112.234-112.241v-125.712c0-61.989-50.246-112.247-112.234-112.247v0z" p-id="2307"></path></svg>