<?xml version="1.0" standalone="no"?><!DOCTYPE svg PUBLIC "-//W3C//DTD SVG 1.1//EN" "http://www.w3.org/Graphics/SVG/1.1/DTD/svg11.dtd"><svg t="1606098149738" class="icon" viewBox="0 0 1024 1024" version="1.1" xmlns="http://www.w3.org/2000/svg" p-id="8904" xmlns:xlink="http://www.w3.org/1999/xlink" width="200" height="200"><defs><style type="text/css"></style></defs><path d="M467.34875 963.47375H210.356c-70.945875 0-128.9925-58.046625-128.9925-128.9925V189.51875c0.496125-70.945875 58.046625-128.9925 128.9925-128.9925h543.75300001c70.945875 0 128.9925 58.046625 128.99249999 128.9925v256.99275c0 17.8605-14.387625 32.248125-32.248125 32.248125s-32.248125-14.387625-32.248125-32.248125V189.51875c0-35.224875-28.77525-64.49625-64.49624999-64.49625H210.356c-35.224875 0-64.49625 28.77525-64.49625 64.49625v644.9625c0 35.224875 28.77525 64.49625 64.49625 64.49625H467.34875c17.8605 0 32.248125 14.387625 32.248125 32.248125 0 18.356625-14.387625 32.248125-32.248125 32.248125z" p-id="8905"></path><path d="M674.72900001 904.93099999c-109.1475 0-197.953875-88.806375-197.95387501-197.95387499s88.806375-197.953875 197.95387501-197.953875 197.953875 88.806375 197.95387499 197.953875-89.3025 197.953875-197.95387499 197.95387499z m0-330.91537499c-73.4265 0-132.9615 60.031125-132.96150001 132.9615s60.031125 132.9615 132.96150001 132.9615 132.9615-60.031125 132.96149999-132.9615-59.53499999-132.9615-132.96149999-132.9615z m-90.79087501-266.91525H260.96075c-17.8605 0-32.248125-14.387625-32.248125-32.248125s14.88375-32.248125 32.248125-32.248125h322.977375c17.8605 0 32.248125 14.387625 32.248125 32.248125s-14.387625 32.248125-32.248125 32.248125zM429.147125 467.34875H260.96075c-17.8605 0-32.248125-14.387625-32.248125-32.248125s14.387625-32.248125 32.248125-32.248125h168.186375c17.8605 0 32.248125 14.387625 32.248125 32.248125 0 17.364375-14.387625 32.248125-32.248125 32.248125z" p-id="8906"></path><path d="M887.566625 952.062875l-90.790875-90.790875c-12.403125-12.403125-12.403125-33.240375 0-45.6435 12.403125-12.403125 33.240375-12.403125 45.6435 0l90.790875 90.790875c12.403125 12.403125 12.403125 33.240375 0 45.6435-12.89925 12.403125-33.240375 12.403125-45.6435 0z" p-id="8907"></path></svg>