<?xml version="1.0" standalone="no"?><!DOCTYPE svg PUBLIC "-//W3C//DTD SVG 1.1//EN" "http://www.w3.org/Graphics/SVG/1.1/DTD/svg11.dtd"><svg t="1597891855785" class="icon" viewBox="0 0 1024 1024" version="1.1" xmlns="http://www.w3.org/2000/svg" p-id="2509" xmlns:xlink="http://www.w3.org/1999/xlink" width="200" height="200"><defs><style type="text/css"></style></defs><path d="M632.32 709.12c-158.72 0-286.72-128-286.72-286.72 0-158.72 128-286.72 286.72-286.72s286.72 128 286.72 286.72c0 158.72-128 286.72-286.72 286.72z m0-501.76c-117.76 0-215.04 97.28-215.04 215.04s97.28 215.04 215.04 215.04 215.04-97.28 215.04-215.04-97.28-215.04-215.04-215.04z" fill="#ffffff" p-id="2510"></path><path d="M947.2 832l-168.96-168.96c-15.36-15.36-15.36-38.4 0-51.2 15.36-15.36 38.4-15.36 51.2 0l168.96 168.96c15.36 15.36 15.36 38.4 0 51.2-12.8 12.8-35.84 12.8-51.2 0zM263.68 286.72H46.08C25.6 286.72 10.24 271.36 10.24 250.88c0-20.48 15.36-35.84 35.84-35.84h217.6c20.48 0 35.84 15.36 35.84 35.84 2.56 20.48-15.36 35.84-35.84 35.84zM204.8 578.56H46.08C25.6 578.56 10.24 563.2 10.24 542.72c0-20.48 15.36-35.84 35.84-35.84H204.8c20.48 0 35.84 15.36 35.84 35.84 0 20.48-15.36 35.84-35.84 35.84zM450.56 847.36H46.08c-20.48 0-35.84-15.36-35.84-35.84 0-20.48 15.36-35.84 35.84-35.84h404.48c20.48 0 35.84 15.36 35.84 35.84 0 17.92-15.36 35.84-35.84 35.84z" fill="#ffffff" p-id="2511"></path></svg>