<?xml version="1.0" standalone="no"?><!DOCTYPE svg PUBLIC "-//W3C//DTD SVG 1.1//EN" "http://www.w3.org/Graphics/SVG/1.1/DTD/svg11.dtd"><svg t="1599120996685" class="icon" viewBox="0 0 1024 1024" version="1.1" xmlns="http://www.w3.org/2000/svg" p-id="1777" xmlns:xlink="http://www.w3.org/1999/xlink" width="200" height="200"><defs><style type="text/css"></style></defs><path d="M556.65227305 544.58409131c17.61136348 0 31.90909131-14.58409131 31.90909042-32.58409131s-14.29772695-32.60454521-31.90909042-32.60454521h-163.47272784c-17.59090869 0-31.88863652 14.60454521-31.88863652 32.60454521 0 18 14.27727305 32.58409131 31.90909131 32.58409131h163.45227305z m96.95454521 0.04090869l8.28409043-0.08181826c17.61136348-0.12272695 31.78636348-14.82954521 31.64318262-32.82954521-0.12272695-17.91818174-14.37954521-32.33863653-31.88863652-32.33863653h-0.24545479l-8.30454521 0.06136348c-17.59090869 0.14318174-31.78636348 14.82954521-31.64318174 32.82954521 0.12272695 17.91818174 14.37954521 32.35909131 31.90909043 32.35909131h0.225z m283.17272695-60.44318174c-7.48636347-21.43636348-24.50454521-38.00454521-44.75454521-47.49545479L195.05681826 110.31363653A77.50227305 77.50227305 0 0 0 161.94090869 102.90909131C118.04545479 102.90909131 82.45454521 139.25681826 82.45454521 184.11363652v183.98863653c0 33.34090869 19.94318174 63.32727305 50.31818174 75.55909042l2.925 1.18636348 3.00681826 0.85909131 128.78181826 37.47272695c20.37272695 5.93181826 40.64318174-9.69545479 40.64318174-31.33636347a32.52272695 32.52272695 0 0 0-23.175-31.35681827l-128.76136347-37.45227216a16.03636348 16.03636348 0 0 1-9.94090869-14.93181826V184.11363652c0-9.24545479 7.425-16.05681826 15.68863564-16.05681826 2.16818174 0 4.37727305 0.47045479 6.54545478 1.49318174l700.09772784 327.84545479c12.21136347 5.70681826 12.21136347 23.44090869 0 29.16818173L168.48636348 854.40909131a15.525 15.525 0 0 1-6.54545479 1.47272695 15.87272695 15.87272695 0 0 1-15.68863564-16.05681826v-183.96818174c0-6.58636347 3.92727305-12.49772695 9.94090869-14.93181826l128.76136347-37.45227305a32.50227305 32.50227305 0 0 0 23.175-31.33636348c0-21.64090869-20.25-37.26818174-40.64318173-31.35681826L138.70454521 578.27272695l-3.00681826 0.8795461-2.90454521 1.16590869c-30.375 12.25227305-50.31818174 42.21818174-50.31818174 75.57954521v178.97727305C82.45454521 879.60909131 118.10681826 921.07045479 161.9 921.09090869c11.49545479 0 22.64318174-2.49545479 33.13636348-7.40454521l700.11818173-327.88636348c36.30681826-16.97727305 56.06590869-60.21818174 41.6045461-101.61818174z" p-id="1778"></path></svg>