<?xml version="1.0" standalone="no"?><!DOCTYPE svg PUBLIC "-//W3C//DTD SVG 1.1//EN" "http://www.w3.org/Graphics/SVG/1.1/DTD/svg11.dtd"><svg t="1599121058187" class="icon" viewBox="0 0 1027 1024" version="1.1" xmlns="http://www.w3.org/2000/svg" p-id="3468" xmlns:xlink="http://www.w3.org/1999/xlink" width="200.5859375" height="200"><defs><style type="text/css"></style></defs><path d="M416.4362 159.2a652.95 652.95 0 0 1 193.05 0c45 9 90 16.2 132.3 27.9a94.5 94.5 0 0 1 66.6 62.55q27.45 77.4 57.6 153.45c3.6 8.55 14.4 21.15 20.7 20.25A66.6 66.6 0 0 1 963.1862 476.45a58.05 58.05 0 0 1 0 27.9l-51.3 13.95a453.6 453.6 0 0 1 6.3 54v249.3a71.1 71.1 0 0 1-15.3 41.4 421.2 421.2 0 0 1-144 2.7c-33.3-21.15-12.6-56.7-23.4-85.5H298.0862c-8.55 30.6-13.5 81.9-23.4 85.5a427.5 427.5 0 0 1-147.6 0 80.55 80.55 0 0 1-16.2-47.7C108.1862 782 108.1862 747.8 108.1862 712.7c0-65.25 0-130.5 2.7-196.2L63.1862 503.9a51.75 51.75 0 0 1 0-22.05C76.6862 445.85 94.6862 417.95 141.0362 422c5.4 0 15.75-10.8 18.9-18.9a1211.4 1211.4 0 0 0 45-122.85 153 153 0 0 1 135-111.15c24.75-4.5 50.4-7.65 75.15-11.7zM217.5362 437.3a1421.55 1421.55 0 0 0 588.6 0c-16.65-49.95-33.3-94.5-45-139.5a74.7 74.7 0 0 0-74.7-59.85c-93.15-4.05-186.75-7.2-279.9-8.1a398.25 398.25 0 0 0-90 13.95 51.3 51.3 0 0 0-32.85 22.5C258.4862 320.75 239.5862 377 217.5362 437.3z m38.25 212.4A219.6 219.6 0 0 0 303.9362 647a45 45 0 0 0 29.25-22.05c2.25-6.75-8.1-23.4-17.1-27.45a1051.65 1051.65 0 0 0-112.5-45c-18.9-6.3-40.5-4.95-45 21.6-9 39.15 0 60.75 29.25 67.05 22.95 4.5 45 5.4 70.2 7.65z m518.85 0a642.15 642.15 0 0 0 70.65-9c33.75-7.65 26.55-35.1 25.65-58.95s-13.5-35.1-31.95-29.7a975.6 975.6 0 0 0-135 51.3c-19.8 9.45-12.6 35.55 9.9 40.5a506.7 506.7 0 0 0 60.75 5.4z" p-id="3469"></path></svg>