<?xml version="1.0" encoding="UTF-8"?>
<svg width="222px" height="32px" viewBox="0 0 222 32" version="1.1" xmlns="http://www.w3.org/2000/svg" xmlns:xlink="http://www.w3.org/1999/xlink">
    <!-- Generator: Sketch 64 (93537) - https://sketch.com -->
    <title>编组 6</title>
    <desc>Created with Sketch.</desc>
    <defs>
        <linearGradient x1="47.3745182%" y1="50%" x2="79.5436574%" y2="67.1987707%" id="linearGradient-1">
            <stop stop-color="#FFD241" offset="0%"></stop>
            <stop stop-color="#EE7C00" offset="100%"></stop>
        </linearGradient>
    </defs>
    <g id="天翼值更" stroke="none" stroke-width="1" fill="none" fill-rule="evenodd">
        <g id="登陆0911改" transform="translate(-88.000000, -30.000000)">
            <g id="编组-6" transform="translate(88.000000, 30.000000)">
                <g id="编组-3">
                    <g id="编组-8">
                        <g id="编组" transform="translate(0.000000, 0.000000)">
                            <path d="M42.0414265,10.1671707 C41.0368558,6.76013064 37.9318191,4.27676303 34.2552901,4.27676303 C33.6681014,4.27676303 33.0961335,4.34159913 32.5441428,4.46183622 C30.2424773,1.73194629 26.82922,-3.55271368e-15 23.0164176,-3.55271368e-15 C17.9816728,-3.55271368e-15 13.6416135,3.01729769 11.6422229,7.37026733 C11.5977497,7.36954155 11.55399,7.36663844 11.5095168,7.36663844 C5.15294351,7.36663844 1.66977543e-13,12.6086851 1.66977543e-13,19.074876 C1.66977543e-13,25.3373654 4.83330737,30.4511915 10.9123395,30.7673884 L10.9123395,30.7828717 L11.5095168,30.7828717 L27.5005986,30.7828717 L31.0011374,30.7828717 C31.1581016,30.7828717 31.2544205,30.7867425 31.3150658,30.7811782 C31.3735706,30.7756139 31.4063904,30.7431958 31.4197086,30.7073908 C31.4430154,30.6444901 31.416379,30.5278819 31.4016339,30.4765937 C31.3899805,30.4357082 31.371668,30.4078868 31.3319513,30.3790976 C31.2720195,30.3353091 31.1388378,30.237813 30.8080239,29.8831499 C30.2579359,29.2933349 29.9532827,28.9304464 29.4329227,28.1594291 C28.9128005,27.3881698 28.5263357,26.5944115 28.4371515,26.3977259 C28.3479673,26.2012822 28.3182392,26.1180598 28.2140721,25.9820975 C28.1101428,25.8458933 27.8054896,25.8666989 27.8054896,25.8666989 L27.5005986,25.8666989 L20.8771862,25.8666989 L11.5596978,25.8666989 C7.87222887,25.8666989 4.88301269,22.8259344 4.88301269,19.074876 C4.88301269,15.6992863 7.30406613,12.9002056 10.4759315,12.3732914 C10.8286253,12.3147454 11.1905942,12.2830531 11.5596978,12.2830531 C12.887472,12.2830531 14.1234459,12.6788436 15.1632147,13.3586549 C15.1544152,13.2026128 15.1487074,13.0458449 15.1487074,12.8878674 C15.1487074,11.2647877 15.624832,9.75565501 16.4405701,8.49425426 C17.8475398,6.31861618 20.2678798,4.88157736 23.0192715,4.88157736 C25.0436336,4.88157736 26.8891518,5.6596105 28.2837547,6.93722027 C29.2999788,7.86815048 30.0755245,9.06495706 30.5067003,10.4194992 C31.26869,9.28825451 32.5469967,8.54554252 33.9967749,8.54554252 C34.3049954,8.54554252 34.6048921,8.5811056 34.8943245,8.64473207 C35.9065056,8.86754566 36.7805107,9.45977985 37.3803041,10.2745857 C37.9089879,10.9926213 38.2257702,11.8814564 38.2257702,12.8474658 C38.2257702,13.5824362 38.0438344,14.2738599 37.7244361,14.8789162 C38.5746587,14.4192573 39.5442692,14.1579775 40.5742871,14.1579775 C41.1310343,14.1579775 41.6697068,14.2353937 42.1819808,14.377888 C44.760474,15.0954397 46.656411,17.4943752 46.656411,20.3449861 C46.656411,23.7619451 43.9333204,26.5319947 40.5742871,26.5319947 C37.3686507,26.5319947 34.7442573,24.0089513 34.5109514,20.8087577 C34.4995359,20.6556187 34.4921633,20.5012701 34.4921633,20.3449861 L38.2495526,20.3449861 L31.8049843,14.1715253 L25.360178,20.3449861 L29.1375446,20.3449861 C29.1254156,20.5552195 29.1168539,20.7664207 29.1168539,20.9800411 C29.1168539,21.9279061 29.2348148,22.8477078 29.4559916,23.7254143 C30.6553406,28.4831257 34.8988432,32 39.9499978,32 C45.9329488,32 50.7831418,27.0661667 50.7831418,20.9800411 C50.7831418,15.6218701 47.0233742,11.1585823 42.0414265,10.1671707" id="Fill-1" fill="url(#linearGradient-1)"></path>
                            <path d="M98.8752358,23.8304171 L98.8753322,27.6579965 C98.8763929,27.7443522 98.8891207,28.2805621 99.0418552,28.7143801 C99.2087172,29.187392 99.7847306,29.6455077 100.542643,29.6455077 C101.300555,29.6455077 101.785619,29.3400158 102.21005,28.9280535 C102.634481,28.5160912 102.945892,28.0731158 103.047756,26.8369847 L103.047736,26.8406667 L102.998279,25.1276953 L102.998279,23.8305148 L104.316925,23.8305148 L104.316925,30.6453526 L103.119545,30.6453526 L103.119545,29.3098329 L103.107852,28.9122806 C103.102356,28.9228579 102.660629,29.7704669 101.997835,30.2252341 C101.330872,30.6831056 100.254515,30.6987343 99.8300841,30.6452549 C99.6062271,30.6169279 99.2392762,30.4904333 98.8752358,30.2767599 C98.5492728,30.0853086 98.2259777,29.8245049 98.0113369,29.4928838 C97.5565895,28.7908142 97.5565895,27.3866748 97.5565895,27.3866748 L97.5565895,23.8304171 L98.8752358,23.8304171 Z M85.4853374,21.3427949 L85.4853374,30.6452794 L83.9088797,30.6452794 L83.9088797,21.3427949 L85.4853374,21.3427949 Z M91.596779,23.8312229 L91.6181218,23.8317113 C91.6321886,23.8317113 91.6462555,23.8307345 91.6603223,23.8307345 C93.8043048,23.8307345 95.4942675,25.3562404 95.4942675,27.2380314 C95.4942675,28.0988299 95.1302271,29.0380159 94.530203,29.6377666 C93.8188568,30.3491158 92.8232631,30.6453282 91.6603223,30.6453282 C91.6457704,30.6453282 91.6326737,30.643863 91.6181218,30.643863 L91.5968699,30.6445956 L91.5968699,30.6445956 L91.5754361,30.6453282 C90.397701,30.6453282 89.3897381,30.3491158 88.6691757,29.6377666 C88.0616331,29.0380159 87.6929846,28.0988299 87.6929846,27.2380314 C87.6929846,25.3562404 89.4045326,23.8307345 91.5754361,23.8307345 C91.5897455,23.8307345 91.6038124,23.8317113 91.6181218,23.8317113 Z M113.59387,21.3425995 L113.59387,30.6453282 L112.396489,30.6453282 L112.396489,29.4199419 C112.340707,29.4905151 112.283227,29.5598674 112.220169,29.6236031 C111.515856,30.3349523 110.837494,30.6453282 109.979901,30.6453282 C108.81405,30.6453282 107.763887,30.3923389 107.0506,29.6809897 C106.449121,29.081239 106.136255,28.0988299 106.136255,27.2380314 C106.136255,25.3562404 107.363951,23.8304903 109.836565,23.8307345 C109.850631,23.8307345 109.864698,23.8317113 109.878765,23.8317113 C109.892832,23.8317113 109.906656,23.8297577 109.920481,23.8307345 C110.834099,23.8859233 111.686841,24.2221842 112.275223,24.8820076 L112.275223,24.8820076 L112.275223,21.3425995 L113.59387,21.3425995 Z M76.3594419,21.3580085 C77.6511671,21.3580085 78.9273703,21.6351734 79.8150372,22.3804661 C80.4296132,22.896701 80.8974574,23.606585 81.0589837,24.4190323 L81.0589837,24.4190323 L79.4252884,24.6556603 C79.3282756,24.0510257 78.989701,23.5526173 78.5562964,23.1692262 C78.0314572,22.7050055 77.1285107,22.4959718 76.4140116,22.4959718 C75.5564186,22.4959718 74.7296271,22.821488 74.1676806,23.4607987 C73.973655,23.6813097 73.4968372,24.4732443 73.3789667,25.3464969 C73.2593984,26.2324478 73.5007177,27.1994725 73.5608656,27.4119249 C73.6634567,27.7740707 73.9096266,28.1696717 74.0459296,28.368449 C74.6098164,29.19042 75.3919819,29.5362046 76.451119,29.5283903 C77.8456777,29.5181339 79.0382074,28.8976264 79.4020053,27.3408632 L79.4020053,27.3408632 L81.0592262,27.574805 C80.8996402,28.0375605 80.5508792,28.8668575 80.2205507,29.2128862 C79.3040224,30.172585 78.0477069,30.6375383 76.3594419,30.6375383 C74.8608369,30.6375383 73.5778429,30.2341229 72.6610721,29.265633 C71.8878802,28.4487902 71.4185809,27.1701687 71.4185809,25.9977734 C71.4185809,23.4351579 73.5967604,21.3580085 76.3594419,21.3580085 Z M61.4721997,21.3578131 C62.851964,21.3578131 64.2152362,21.634978 65.1632936,22.380515 C66.2430459,23.2295919 66.8156638,24.6332429 66.8156638,25.997578 C66.8156638,26.0281028 66.8159064,26.0586275 66.8159064,26.0893965 L66.8159064,26.0893965 L58.1752203,26.0991644 C58.1752203,26.9418923 58.3445076,27.8053769 58.8727422,28.4090348 C59.5467385,29.1799683 60.7116195,29.5831395 61.8430311,29.5831395 C63.1936916,29.5831395 64.3069133,28.9357702 64.9661151,27.8290642 L64.9661151,27.8290642 L66.6184854,28.0427375 C66.4479854,28.5057372 66.077154,28.9025592 65.7240275,29.248588 C64.7451685,30.2082868 63.0649071,30.6373429 61.4721997,30.6373429 C59.8712463,30.6373429 58.336019,30.0795943 57.3566749,29.1111045 C56.5308536,28.2945058 56.1287356,27.1699733 56.1287356,25.997578 C56.1287356,23.4352068 58.5210709,21.3578131 61.4721997,21.3578131 Z M91.6181218,24.5936096 C90.944368,24.5936096 90.1961569,24.9005666 89.7545062,25.3699155 C89.6021961,25.5318189 89.2274843,26.1134989 89.134837,26.7547632 C89.0409772,27.4053071 89.2306372,28.1154353 89.2779309,28.2714779 C89.3584515,28.5374097 89.551992,28.8277613 89.6589486,28.9737918 C90.0967188,29.5703679 90.8012741,29.8533936 91.6181218,29.853882 C92.4250256,29.8533936 93.1206072,29.5703679 93.5527992,28.9737918 C93.6585431,28.8277613 93.8496583,28.5374097 93.9292088,28.2714779 C93.9760175,28.1154353 94.1632521,27.4053071 94.0703624,26.7547632 C93.9789278,26.1134989 93.6090666,25.5318189 93.4584543,25.3699155 C93.0223818,24.9005666 92.2836295,24.5936096 91.6181218,24.5936096 Z M110.022344,24.5936096 C109.355139,24.5936096 108.614446,24.9005666 108.177404,25.3699155 C108.026549,25.5318189 107.655475,26.1134989 107.563798,26.7547632 C107.470908,27.4053071 107.658628,28.1154353 107.705436,28.2714779 C107.785229,28.5374097 107.976587,28.8277613 108.082816,28.9737918 C108.515978,29.5703679 109.2135,29.8533936 110.022344,29.853882 C110.821002,29.8533936 111.509793,29.5703679 111.937619,28.9737918 C112.04215,28.8277613 112.231325,28.5374097 112.310148,28.2714779 C112.321062,28.2348482 112.339737,28.1654959 112.360595,28.075631 L112.360595,28.075631 L112.30651,26.2067826 C112.158323,25.8048324 111.948533,25.4834676 111.844002,25.3699155 C111.412295,24.9005666 110.681061,24.5936096 110.022344,24.5936096 Z M61.5294373,22.3651305 C60.5728912,22.3651305 59.6510273,22.7052985 59.0243247,23.3724479 C58.5884948,23.8364243 58.2814493,24.41029 58.2511328,25.1182205 L58.2511328,25.1182205 L64.8601287,25.0972194 C64.8448491,24.2576662 64.5167034,23.5638992 63.9183771,23.068177 C63.3331474,22.5836878 62.3261548,22.3651305 61.5294373,22.3651305 Z M74.0752274,2.66673993 L74.0752274,4.68357247 L66.8307978,4.68357247 L66.8307978,8.21418937 L74.5906078,8.21418937 L74.5906078,10.2310219 L66.8307978,10.2310219 L66.8307978,10.3731452 C66.8606293,10.5389558 67.3835282,13.2751961 69.5289659,14.9323248 C71.74207,16.6417118 74.4855915,17.1454926 74.4855915,17.1454926 L74.4855915,17.1454926 L74.4855915,18.7581772 C74.4855915,18.7581772 72.2574504,18.3359586 70.5597267,17.5879797 C68.9711424,16.888352 68.0912364,16.0580783 67.7553297,15.7310969 C67.1286271,15.1210899 65.4665556,12.8822813 65.4665556,12.8822813 C65.4665556,12.8822813 64.3145288,14.5916683 63.6980125,15.2121758 C63.0814963,15.8329276 62.4145334,16.64684 60.726996,17.5423146 C59.0394587,18.4377893 56.7960381,18.8394952 56.7960381,18.8394952 L56.7960381,18.8394952 L56.7960381,17.1911577 C56.7960381,17.1911577 59.2819906,16.7181459 61.4950947,15.0087588 C63.7081989,13.2993717 64.0416803,10.3650867 64.0416803,10.3650867 L64.0416803,10.2310219 L56.9250651,10.2310219 L56.9250651,8.21418937 L64.0416803,8.21418937 L64.0416803,4.68357247 L56.9250651,4.68357247 L56.9250651,2.66673993 L74.0752274,2.66673993 Z M93.716387,8.21421379 L93.716387,12.9228426 L89.5225244,12.9228426 L89.5225244,13.74286 L93.716387,13.74286 L93.716387,14.7553055 L89.5225244,14.7553055 L89.5225244,15.4056052 L93.716387,15.4056052 L93.716387,16.5599299 L89.6590699,16.5599299 L89.6653828,16.5687194 C89.7197821,16.6434631 90.1216823,17.1761116 90.7126287,17.4405084 C91.34879,17.7254877 92.5381668,17.6795784 92.5381668,17.6795784 L92.5381668,17.6795784 L93.6608472,17.6795784 L93.6608472,18.768458 C93.6608472,18.768458 91.9153447,18.8715096 90.4121316,18.6348816 C89.0840266,18.425848 88.5356618,17.7140103 87.7083853,16.5599299 L87.7083853,16.5599299 L82.0949832,16.5599299 C81.3067543,17.7140103 80.6470674,18.4475816 79.3817782,18.656371 C77.9493844,18.892999 76.2135832,18.768458 76.2135832,18.768458 L76.2135832,18.768458 L76.2135832,17.6795784 L77.3352935,17.6795784 C77.3352935,17.6795784 78.3306446,17.7254877 78.9369745,17.4405084 C79.5433044,17.1557734 79.9274751,16.5599299 79.9274751,16.5599299 L79.9274751,16.5599299 L76.1631365,16.5599299 L76.1631365,15.4056052 L80.6346982,15.4056052 L80.6346982,14.7553055 L76.1631365,14.7553055 L76.1631365,13.74286 L80.6346982,13.74286 L80.6346982,12.9228426 L76.3348492,12.9228426 L76.3348492,8.21421379 L93.716387,8.21421379 Z M112.96222,7.39004503 L112.96222,9.40687757 L99.0772649,9.40687757 L97.7940283,16.7811734 L110.242267,16.7807017 C110.30239,16.7776936 110.548481,16.7556852 110.638036,16.5960712 C110.769488,16.3621294 110.703277,16.0747081 110.703277,16.0747081 L110.703277,16.0747081 L109.708411,11.9055131 L111.493203,11.895501 L112.735937,17.1025382 C112.735937,17.1025382 112.855263,17.6385531 112.774742,17.9286605 C112.68064,18.2673634 112.459208,18.44807 112.251601,18.5672387 C112.175931,18.610706 112.003248,18.7022803 111.831778,18.7403752 C111.734765,18.7621088 111.547531,18.768458 111.547531,18.768458 L97.8332683,18.768259 C97.7378512,18.7660123 97.0555185,18.7389798 96.6519453,18.4224292 C96.4222676,18.242211 96.1360798,17.8546685 96.0558018,17.5728638 C95.9379312,17.1589479 95.9735834,16.5911872 96.0152989,16.2676247 C96.0184518,16.2432049 96.0320336,16.170678 96.0320336,16.170678 L96.0320336,16.170678 L97.2243207,9.40687757 L95.3815629,9.40687757 L95.3815629,7.39004503 L112.96222,7.39004503 Z M87.3043271,14.7553055 L82.3224781,14.7553055 L82.3224781,15.4056052 L87.3043271,15.4056052 L87.3043271,14.7553055 Z M87.3043271,12.9228426 L82.3224781,12.9228426 L82.3224781,13.74286 L87.3043271,13.74286 L87.3043271,12.9228426 Z M84.4072829,11.0061313 L78.6338096,11.0061313 L78.6338096,11.6205338 L84.4072829,11.6205338 L84.4072829,11.0061313 Z M91.9308667,11.0061313 L85.8309455,11.0061313 L85.8309455,11.6205338 L91.9308667,11.6205338 L91.9308667,11.0061313 Z M84.4072829,9.30138397 L78.6338096,9.30138397 L78.6338096,9.91578652 L84.4072829,9.91578652 L84.4072829,9.30138397 Z M91.9308667,9.30138397 L85.8309455,9.30138397 L85.8309455,9.91578652 L91.9308667,9.91578652 L91.9308667,9.30138397 Z M82.6193553,2.66717179 C82.6824376,2.66872242 82.9125064,2.6750915 83.0424343,2.6882782 C83.1940167,2.70341849 83.9291311,2.76446803 84.2172591,3.05457543 C84.4389333,3.27777255 84.4636715,3.3634861 84.5279425,3.52392428 C84.5456473,3.56787995 84.5812995,3.67679233 84.5810582,3.79083287 L84.5810582,3.79083287 L84.5810582,6.31559757 C84.5812995,6.42963811 84.5456473,6.53879468 84.5279425,6.58275035 C84.4636715,6.74318854 84.4389333,6.82890209 84.2172591,7.0520992 C83.9291311,7.34220661 83.1940167,7.40325615 83.0424343,7.41839643 C82.8908518,7.43353672 82.6029664,7.43988587 82.6029664,7.43988587 L82.6029664,7.43988587 L76.3349704,7.43988587 L76.3349704,6.4313475 L82.535785,6.4169398 C82.7581868,6.41596301 82.8200325,6.38226367 82.8530168,6.35491347 C82.9216533,6.2980153 82.9325673,6.23672157 82.9325673,5.98446488 L82.931928,4.59125414 C82.9251059,4.51253826 82.8525641,3.91679027 82.2112772,3.75542413 C82.0975298,3.72660875 81.8894373,3.68973483 81.5445569,3.68973483 L81.5445569,3.68973483 L76.3349704,3.67508294 L76.3349704,2.66678877 Z M91.7547095,2.66706251 C91.8177919,2.66866012 92.0478607,2.67517872 92.1777885,2.6881561 C92.329371,2.70354059 93.0644854,2.76459013 93.3526133,3.05445333 C93.5742875,3.27765045 93.5992683,3.363364 93.6632968,3.52380218 C93.6810016,3.56775785 93.7166538,3.67691443 93.7164125,3.79095496 L93.7164125,3.79095496 L93.7164125,6.31571967 C93.7166538,6.42976021 93.6810016,6.53891678 93.6632968,6.58287245 C93.5992683,6.74331064 93.5742875,6.82877999 93.3526133,7.0519771 C93.0644854,7.34208451 92.3674485,7.31790889 92.215866,7.33329337 C92.0642836,7.34843366 91.7761556,7.35478281 91.7761556,7.35478281 L91.7761556,7.35478281 L85.6723538,7.35478281 L85.6345188,6.43146959 L90.4218571,6.4170619 C90.6442589,6.41608511 90.7061046,6.38214157 90.7390889,6.35503557 C90.8077255,6.29789321 90.8186394,6.23659947 90.8186394,5.98458697 L90.8186394,5.39338325 L86.4353593,5.39338325 L86.4353593,4.88471849 L90.8186394,4.88471849 L90.8180001,4.59113204 C90.8111781,4.51241616 90.7386362,3.91666817 90.0973494,3.75530203 C89.9836019,3.72673085 89.7755095,3.68961273 89.430629,3.68961273 L89.430629,3.68961273 L85.4703247,3.67520504 L85.4703247,2.66666667 Z M82.6154568,4.88481617 L82.6154568,5.39348092 L77.1989905,5.39348092 L77.1989905,4.88481617 L82.6154568,4.88481617 Z M112.295305,2.66676435 L112.295305,4.68359689 L95.7301299,4.68359689 L95.7301299,2.66676435 L112.295305,2.66676435 Z" id="形状结合" fill="#333333"></path>
                        </g>
                    </g>
                    <path d="M132.326389,7 C132.256944,13.3209877 132.1875,19.6419753 132.118056,25.962963" id="Path-2" stroke="#666666" opacity="0.654110863"></path>
                </g>
                <path d="M163.29,25.957 L164.145,24.855 C160.421,22.917 157.894,20.124 156.564,16.514 L163.556,16.514 L163.556,15.203 L155.766,15.203 C155.994,13.911 156.146,12.467 156.26,10.833 L163.005,10.833 L163.005,9.503 L147.995,9.503 L147.995,10.833 L154.873,10.833 C154.778,12.448 154.626,13.911 154.398,15.203 L147.501,15.203 L147.501,16.514 L154.113,16.514 C153.79,17.768 153.391,18.813 152.897,19.649 C151.7,21.663 149.686,23.392 146.855,24.836 L147.71,25.957 C150.75,24.342 152.897,22.404 154.189,20.162 C154.683,19.288 155.082,18.186 155.405,16.894 C156.754,20.808 159.376,23.829 163.29,25.957 Z M166.881,13.74 C168.8,13.398 170.624,12.98 172.353,12.467 L172.353,13.664 L173.645,13.664 L173.645,8.971 L166.824,8.971 L166.824,10.035 L172.353,10.035 L172.353,11.517 C170.51,12.03 168.591,12.41 166.596,12.676 L166.881,13.74 Z M181.644,13.664 L181.644,8.971 L174.671,8.971 L174.671,10.035 L180.352,10.035 L180.352,11.479 C179.801,11.612 179.231,11.745 178.661,11.859 L178.927,11.156 C177.882,10.7 176.799,10.339 175.697,10.092 L175.279,10.909 C176.381,11.137 177.464,11.479 178.49,11.897 C177.274,12.144 176.001,12.353 174.709,12.505 L174.975,13.569 C176.875,13.265 178.661,12.885 180.352,12.429 L180.352,13.664 L181.644,13.664 Z M170.491,11.973 L170.814,11.175 C169.788,10.719 168.743,10.377 167.641,10.149 L167.204,10.966 C168.344,11.194 169.427,11.536 170.491,11.973 Z M182.689,23.145 L182.689,22.1 L178.148,22.1 L178.148,20.941 L181.682,20.941 L181.682,19.915 L178.148,19.915 L178.148,18.87 L180.561,18.87 L180.561,14.12 L168.534,14.12 L168.534,18.87 L170.852,18.87 L170.852,19.915 L167.413,19.915 L167.413,20.941 L170.852,20.941 L170.852,22.1 L166.311,22.1 L166.311,23.145 L182.689,23.145 Z M173.911,16.039 L169.826,16.039 L169.826,15.108 L173.911,15.108 L173.911,16.039 Z M179.269,16.039 L175.165,16.039 L175.165,15.108 L179.269,15.108 L179.269,16.039 Z M179.269,17.901 L175.165,17.901 L175.165,16.932 L179.269,16.932 L179.269,17.901 Z M173.911,17.901 L169.826,17.901 L169.826,16.932 L173.911,16.932 L173.911,17.901 Z M176.894,19.915 L172.106,19.915 L172.106,18.87 L176.894,18.87 L176.894,19.915 Z M176.894,22.1 L172.106,22.1 L172.106,20.941 L176.894,20.941 L176.894,22.1 Z M167.223,26.014 C169.541,25.463 171.479,24.779 173.037,23.943 L172.334,23.164 C170.852,23.886 168.99,24.456 166.71,24.912 L167.223,26.014 Z M181.853,25.976 L182.271,24.931 C180.447,24.171 178.528,23.582 176.514,23.202 L176.077,24.057 C178.072,24.513 179.991,25.14 181.853,25.976 Z M202.183,25.33 L202.183,24.076 L200.378,24.076 L200.378,13.17 L196.521,13.17 C196.597,12.638 196.692,12.087 196.768,11.517 L201.632,11.517 L201.632,10.263 L196.92,10.263 C196.958,9.731 197.015,9.161 197.053,8.591 L195.704,8.401 C195.666,9.009 195.609,9.636 195.552,10.263 L190.555,10.263 L190.555,11.517 L195.419,11.517 C195.343,12.068 195.248,12.619 195.172,13.17 L191.695,13.17 L191.695,24.076 L189.738,24.076 L189.738,25.33 L202.183,25.33 Z M188.731,25.9 L188.731,12.524 C189.282,11.403 189.757,10.225 190.137,8.99 L188.902,8.42 C188.066,11.346 186.698,13.949 184.817,16.21 L185.273,17.654 C186.052,16.78 186.755,15.849 187.401,14.861 L187.401,25.9 L188.731,25.9 Z M199.067,15.944 L193.006,15.944 L193.006,14.405 L199.067,14.405 L199.067,15.944 Z M199.067,18.604 L193.006,18.604 L193.006,17.046 L199.067,17.046 L199.067,18.604 Z M199.067,21.302 L193.006,21.302 L193.006,19.706 L199.067,19.706 L199.067,21.302 Z M199.067,24.076 L193.006,24.076 L193.006,22.404 L199.067,22.404 L199.067,24.076 Z M204.444,25.9 C207.465,25.558 209.65,24.836 210.98,23.696 C213.811,24.988 217.136,25.729 220.955,25.881 L221.297,24.57 C217.649,24.456 214.495,23.829 211.835,22.708 C212.367,21.948 212.728,20.941 212.956,19.687 L219.074,19.687 L219.074,12.163 L213.184,12.163 L213.184,10.51 L220.651,10.51 L220.651,9.237 L204.368,9.237 L204.368,10.51 L211.816,10.51 L211.816,12.163 L206.002,12.163 L206.002,19.687 L211.569,19.687 C211.379,20.675 211.037,21.492 210.581,22.138 C209.517,21.587 208.529,20.941 207.636,20.2 L206.591,20.922 C207.522,21.72 208.548,22.423 209.65,23.031 C208.434,23.905 206.496,24.437 203.855,24.646 L204.444,25.9 Z M211.816,15.336 L207.351,15.336 L207.351,13.341 L211.816,13.341 L211.816,15.336 Z M217.725,15.336 L213.184,15.336 L213.184,13.341 L217.725,13.341 L217.725,15.336 Z M217.725,18.49 L213.127,18.49 L213.184,17.141 L213.184,16.476 L217.725,16.476 L217.725,18.49 Z M211.759,18.49 L207.351,18.49 L207.351,16.476 L211.816,16.476 L211.816,17.141 C211.816,17.597 211.797,18.053 211.759,18.49 Z" id="天翼值更" fill="#333333" fill-rule="nonzero"></path>
            </g>
        </g>
    </g>
</svg>