<?xml version="1.0" standalone="no"?><!DOCTYPE svg PUBLIC "-//W3C//DTD SVG 1.1//EN" "http://www.w3.org/Graphics/SVG/1.1/DTD/svg11.dtd"><svg t="1599121013646" class="icon" viewBox="0 0 1024 1024" version="1.1" xmlns="http://www.w3.org/2000/svg" p-id="1923" xmlns:xlink="http://www.w3.org/1999/xlink" width="200" height="200"><defs><style type="text/css"></style></defs><path d="M278.1875 604.4375l195.5625 198.9375c10.21875001 10.40625001 23.8125 16.03125001 38.25 16.03125001s28.03125001-5.71875001 38.25-16.03125001l195.5625-198.9375c31.40625001-31.875 55.6875-69.28125001 72.1875-110.90625001 15.9375-40.21875001 24-82.6875 24-126.28124999s-8.0625-86.0625-24-126.28125001c-16.5-41.71875001-40.875-79.03125001-72.1875-110.90624999-31.40625001-31.96875001-68.15625001-56.71875001-109.21875001-73.59375001C596.9375 40.25 555.03125001 32 512 32c-43.03125001 0-84.9375 8.25-124.59375001 24.5625-41.0625 16.875-77.8125 41.625-109.21874999 73.59375001-31.40625001 31.875-55.6875 69.28125001-72.1875 110.90624999-15.9375 40.21875001-24 82.6875-24 126.28125001s8.0625 86.0625 24 126.28124999c16.59375001 41.625 40.875 78.9375 72.1875 110.8125z m40.125-434.90625001C369.875 117.125 438.59374999 88.25 512 88.25c73.40625001 0 142.125 28.875 193.6875 81.28125001 51.65625001 52.59375001 80.0625 122.8125 80.0625 197.71874999s-28.40625001 145.21875001-80.0625 197.71875001L522.03125001 751.90625001c-5.53125001 5.625-14.53125001 5.625-20.06250002-2e-8L318.3125 565.0625c-51.65625001-52.59375001-80.0625-122.8125-80.0625-197.71875001s28.40625001-145.21875001 80.0625-197.81249998z" fill="" p-id="1924"></path><path d="M512 525.125c82.6875 0 150-67.3125 150-150s-67.3125-150-150-150-150 67.3125-150 150 67.3125 150 150 150z m0-243.75c51.65625001 0 93.75 42.09375001 93.75 93.75s-42.09375001 93.75-93.75 93.75-93.75-42.09375001-93.75-93.75 42.09375001-93.75 93.75-93.75zM889.71875001 771.875c-22.21875001-16.40625001-53.34375001-30.84375001-92.25000002-42.9375-22.03125001-6.84375001-46.21875001-12.84375001-71.90624999-17.90625001-17.34375001-3.375-33.5625 9.84375001-33.5625 27.56250002 0 13.40625001 9.46875001 25.03125001 22.6875 27.56249998 23.71875001 4.59375001 45.84375001 10.125 66.09374999 16.40625001C855.875 806.09375001 875.75 831.6875 875.75 842s-19.875 35.90625001-94.96875001 59.34375001C709.34375001 923.5625 613.90625001 935.75 512 935.75s-197.34375001-12.1875-268.78125001-34.40625001C168.125 877.90625001 148.25 852.3125 148.25 842s19.875-35.90625001 94.96875001-59.34375001c20.25-6.28125001 42.375-11.8125 66.09374999-16.40624999 13.125-2.53125001 22.6875-14.15625001 22.6875-27.5625 0-17.71875001-16.21875001-31.03125001-33.5625-27.5625-25.6875 5.0625-49.875 10.96875001-71.90625001 17.90624999-39 12.09375001-70.03125001 26.53125001-92.24999998 42.9375C114.96874999 786.03125001 92 809.75 92 842s22.96875001 55.96875001 42.28125001 70.125c22.21875001 16.40625001 53.34375001 30.84375001 92.24999998 42.9375C303.21874999 978.875 404.5625 992 512 992s208.78125001-13.125 285.46875001-36.9375c39-12.09375001 70.03125001-26.53125001 92.24999998-42.9375 19.3125-14.15625001 42.28125001-37.875 42.28125001-70.125s-22.96875001-55.96875001-42.28125001-70.125z" fill="" p-id="1925"></path></svg>