<?xml version="1.0" standalone="no"?><!DOCTYPE svg PUBLIC "-//W3C//DTD SVG 1.1//EN" "http://www.w3.org/Graphics/SVG/1.1/DTD/svg11.dtd"><svg t="1599121068998" class="icon" viewBox="0 0 1910 1024" version="1.1" xmlns="http://www.w3.org/2000/svg" p-id="3748" xmlns:xlink="http://www.w3.org/1999/xlink" width="373.046875" height="200"><defs><style type="text/css"></style></defs><path d="M480.36780302 342.8232481C324.90808476 342.8232481 198.02552083 468.5627257 198.02552083 625.1655303s125.73947759 282.3422822 282.34228219 282.3422822c155.45971827 0 282.3422822-125.73947759 282.34228221-282.3422822s-125.73947759-282.3422822-282.3422822-282.3422822z m1e-8 494.9563084C362.62992819 837.7795565 266.61069051 741.76031881 266.61069051 624.02244398s96.01923769-212.6140262 213.75711252-212.61402622 213.75711253 96.01923769 213.75711253 213.75711253S598.10567787 837.7795565 480.36780302 837.7795565zM1391.40747552 342.8232481c-155.45971827 0-282.3422822 125.73947759-282.34228221 282.34228219s125.73947759 282.3422822 282.34228221 282.34228221c155.45971827 0 282.3422822-125.73947759 282.34228221-282.3422822S1546.86719379 342.8232481 1391.40747552 342.8232481z m0 494.9563084c-117.73787484 0-213.75711253-96.01923769-213.75711253-213.75711252s96.01923769-212.6140262 213.75711253-212.61402622 213.75711253 96.01923769 213.75711253 213.75711253-96.01923769 212.6140262-213.75711253 212.61402621z" fill="#2c2c2c" p-id="3749"></path><path d="M1105.63593434 326.82004182L910.16820076 587.44368687c-3.42925822 4.57234454-12.57394807 10.28777541-17.14629262 11.43086174H553.52531724l195.46773435-260.62364505c3.42925822-4.57234454 12.57394807-10.28777541 17.1462926-11.43086174h339.49659015m80.01603141-58.29739425H764.99625789c-19.4324645 0-48.00961884 16.00320628-61.72665326 35.43567077l-240.04809421 318.9210393c-14.86011996 19.4324645-10.28777541 35.43567078 10.2877754 35.43567155h420.65570863c19.4324645 0 48.00961884-16.00320628 61.72665249-35.43567155l238.90500866-318.9210393c14.86011996-19.4324645 10.28777541-35.43567078-9.14468985-35.43567077zM841.58303106 268.52264757H569.52852351c-22.86172348 0-41.15110164-18.28937894-41.15110163-41.15110243s18.28937894-41.15110164 41.15110163-41.15110164h272.05450755M1062.19866004 198.79439157h-160.03206281c-22.86172348 0-41.15110164-18.28937894-41.15110166-41.15110243S879.30487451 116.4921875 902.16659722 116.4921875h161.17514915c22.86172348 0 41.15110164 18.28937894 41.15110164 41.15110164-1.14308633 22.86172348-19.4324645 41.15110164-42.29418797 41.15110243z" fill="#2c2c2c" p-id="3750"></path><path d="M1367.40266573 636.59639203L1034.76459201 186.2204435c-13.71703363-18.28937894-9.14468908-43.4372743 9.14468985-57.15430793 18.28937894-13.71703363 43.4372743-9.14468908 57.15430794 9.14468908l332.63807368 450.37594856c13.71703363 18.28937894 9.14468908 43.4372743-9.14468908 57.15430792-18.28937894 12.57394807-44.58036063 9.14468908-57.15430867-9.14468909z" fill="#2c2c2c" p-id="3751"></path></svg>