<?xml version="1.0" standalone="no"?><!DOCTYPE svg PUBLIC "-//W3C//DTD SVG 1.1//EN" "http://www.w3.org/Graphics/SVG/1.1/DTD/svg11.dtd"><svg t="1599122637555" class="icon" viewBox="0 0 1024 1024" version="1.1" xmlns="http://www.w3.org/2000/svg" p-id="1301" xmlns:xlink="http://www.w3.org/1999/xlink" width="200" height="200"><defs><style type="text/css"></style></defs><path d="M353.24529219 477.18556063v139.03536562l-128.11572938 293.19022688s-39.11869594 60.79797375 23.87920313 80.35732124c0 0 41.27862375 6.51978281 60.79797375-32.59891312l112.95623531-214.99283344s26.03913187-62.9979 45.59847938-41.27862468l80.35732125 89.07703125s21.71927625 45.59848031 21.71927625 171.55428093c0 0-8.67971063 30.39898688 49.95833531 30.39898688 0 0 41.23862531 2.15992781 41.23862531-28.23905813v-115.07616469s-6.47978437-132.51558281-123.75587531-264.99116718v-39.07869657l19.51934906-108.59638031s23.87920406-28.23905906 39.11869687-4.31985656c0 0-4.359855 32.55891469 62.95790063 67.31775656l78.19739344 28.23905813s43.4385525 15.19949344 49.95833531-8.71970907c0 0 15.19949344-34.7188425-8.71971-43.39855312l-69.47768344-39.11869594s-82.51724906-54.27819094-78.19739344-123.79587375c0 0-12.99956625-78.157395-84.67717781-99.87667031 0 0-34.75884094-28.23905906-78.19739343-10.87963781L283.76760781 286.11192969s-26.07913031 15.19949344-26.07913031 34.7188425v182.43391875s-4.31985563 34.79884031 19.5593475 34.79884031c0 0 41.27862375-13.07956406 41.27862375-26.07913031l2.15992875-138.99536719s4.31985563-10.87963781 34.75884094-30.39898688l30.39898687-23.9192025s34.75884094-23.87920406 28.23905813 8.67971063c0 2.19992625-60.79797375 93.39688687-60.79797281 149.87500406z m238.91203594-284.47051782a80.15732812 80.15732812 0 0 0 80.35732124-80.35732125A80.15732812 80.15732812 0 0 0 592.15732812 32.00040031c-45.59848031 0-80.35732125 34.75884094-80.35732125 80.35732125s34.75884094 80.35732125 80.35732125 80.35732125z" p-id="1302"></path></svg>